<?xml version="1.0" encoding="UTF-8"?>
<svg version="1.1" xmlns="http://www.w3.org/2000/svg" width="1280" height="720">
<path d="M0 0 C422.4 0 844.8 0 1280 0 C1280 237.6 1280 475.2 1280 720 C857.6 720 435.2 720 0 720 C0 482.4 0 244.8 0 0 Z " fill="#FEFEFE" transform="translate(0,0)"/>
<path d="M0 0 C55.11 0 110.22 0 167 0 C167 44.22 167 88.44 167 134 C182.18 134 197.36 134 213 134 C211.87380029 144.13579743 211.87380029 144.13579743 211.203125 148.14453125 C211.05174072 149.05380371 210.90035645 149.96307617 210.74438477 150.89990234 C210.58123779 151.86105957 210.41809082 152.8222168 210.25 153.8125 C210.075896 154.84584473 209.90179199 155.87918945 209.72241211 156.94384766 C206.09396554 178.35024448 202.14404137 199.68778723 198 221 C182.16 221 166.32 221 150 221 C149.67 224.3 149.34 227.6 149 231 C148.31640625 233.96533203 148.31640625 233.96533203 147.5625 236.3828125 C145.8900335 242.15728726 144.91238166 247.93950613 144 253.875 C142.81408804 261.29275196 141.51786527 268.60769531 139.72265625 275.90625 C138.51905116 281.05898098 137.59926572 286.26449328 136.6484375 291.46875 C136.12533195 294.31746936 135.5680209 297.15989548 135 300 C150.18 300 165.36 300 181 300 C179.87411015 309.00711877 179.87411015 309.00711877 179.203125 312.1640625 C179.05157959 312.88271484 178.90003418 313.60136719 178.74389648 314.34179688 C178.58091064 315.09525391 178.4179248 315.84871094 178.25 316.625 C177.99101929 317.83639648 177.99101929 317.83639648 177.72680664 319.07226562 C171.89449472 346.17429815 171.89449472 346.17429815 168.55859375 357.859375 C167.76742224 360.891277 167.34575272 363.88822551 167 367 C166.34 367 165.68 367 165 367 C164.95536621 367.59570801 164.91073242 368.19141602 164.86474609 368.80517578 C164.30461971 375.31806744 163.13546999 381.5212236 161.625 387.875 C161.39876953 388.84824219 161.17253906 389.82148438 160.93945312 390.82421875 C159.62219524 396.46313931 158.24372603 402.0842559 156.8125 407.6953125 C155.18116428 414.33045682 153.6939566 420.99921352 152.20703125 427.66796875 C151.51869811 430.74900186 150.79434625 433.80391921 150.01171875 436.86328125 C146.6688571 450.34562847 145.36588794 468.37798228 152.08984375 481.0546875 C153.0015506 482.410892 153.99191268 483.71381962 155 485 C155 485.66 155 486.32 155 487 C155.8353125 487.3403125 155.8353125 487.3403125 156.6875 487.6875 C159.62841043 489.35666538 161.6135675 491.6135675 164 494 C167.59487558 496.42746753 171.03418147 497.78587522 175.1875 499 C176.33476563 499.33773438 177.48203125 499.67546875 178.6640625 500.0234375 C179.76492188 500.34570312 180.86578125 500.66796875 182 501 C183.31097656 501.42152344 183.31097656 501.42152344 184.6484375 501.8515625 C194.68057246 505.06574166 204.67799618 506.29514126 215.18457031 506.31884766 C216.22995468 506.32889328 217.27533905 506.3389389 218.35240173 506.34928894 C221.76097124 506.37984383 225.16946326 506.39707826 228.578125 506.4140625 C230.95994725 506.43279647 233.34176301 506.45237151 235.72357178 506.4727478 C241.95737875 506.52383947 248.19120717 506.56358751 254.42510986 506.60089111 C260.80038665 506.64107549 267.17557592 506.69210166 273.55078125 506.7421875 C286.03379249 506.83867455 298.5168534 506.92316562 311 507 C311.06081253 506.31374542 311.12162506 505.62749084 311.1842804 504.92044067 C311.2682457 504.02002045 311.352211 503.11960022 311.4387207 502.19189453 C311.52015823 501.29938995 311.60159576 500.40688538 311.6855011 499.48733521 C312.06516488 496.48461852 313.00687225 493.85381537 314 491 C314.54769003 488.05681285 314.92092778 485.09245696 315.3125 482.125 C316.54754708 473.30886605 318.2741494 464.65689856 320.15893555 455.95922852 C321.73616608 448.56920281 322.98275068 441.17950602 323.92382812 433.68164062 C324.65562048 428.19083735 326.08593651 423.19564464 328 418 C327.08299316 418.02094727 326.16598633 418.04189453 325.22119141 418.06347656 C321.77316965 418.13221946 318.32589065 418.18207152 314.87744141 418.21972656 C313.39359952 418.23966981 311.90983445 418.2668349 310.42626953 418.30175781 C293.27415465 418.69499578 293.27415465 418.69499578 286 414 C281.88825348 409.44497969 282.57908463 404.34680206 282.70703125 398.50390625 C283.02023765 394.75795768 283.71297156 391.67515089 285.11181641 388.20410156 C288.22884831 380.46892729 289.98026431 372.68696325 291.5 364.5 C292.71855912 357.93550412 294.00601587 351.61089811 296.23071289 345.31103516 C299.52184612 335.42405731 301.23931516 325.03997214 303.19335938 314.828125 C303.39896484 313.77367187 303.60457031 312.71921875 303.81640625 311.6328125 C303.99631104 310.69324707 304.17621582 309.75368164 304.36157227 308.78564453 C305.04465377 305.8051627 306.03305262 302.90084213 307 300 C322.84 300 338.68 300 355 300 C355.33 297.36 355.66 294.72 356 292 C356.4587249 289.43376182 356.93818794 286.8711509 357.4375 284.3125 C358.80009398 277.23269925 359.96148236 270.13522708 361 263 C361.66 263 362.32 263 363 263 C363.10957031 262.030625 363.21914063 261.06125 363.33203125 260.0625 C364.87237874 246.87991403 367.39631815 234.01840924 370 221 C354.82 221 339.64 221 324 221 C324 214.42836678 324.34813429 209.27995549 325.8125 203.0625 C327.4908889 195.58189452 328.88594936 188.10163118 330.0480957 180.52368164 C330.89970129 175.10029871 330.89970129 175.10029871 332 174 C332.3345879 172.07376199 332.61277132 170.13767544 332.8671875 168.19921875 C333.03089844 166.99330078 333.19460938 165.78738281 333.36328125 164.54492188 C333.69869051 162.01655056 334.03209632 159.48791249 334.36328125 156.95898438 C334.61271484 155.12883789 334.61271484 155.12883789 334.8671875 153.26171875 C335.08544189 151.60595825 335.08544189 151.60595825 335.30810547 149.91674805 C336.2555506 144.55335274 337.67904532 139.28381872 339 134 C385.86 134 432.72 134 481 134 C481.3125 177.5 481.3125 177.5 481.38793945 191.13867188 C481.42458498 195.24055778 481.42458498 195.24055778 481.4650116 199.34240723 C481.48096058 201.14249859 481.49138293 202.94264496 481.49711609 204.74279785 C481.55355896 220.41837483 483.23282317 234.63147688 488.28125 249.56640625 C489.53994862 253.36581134 490.45083052 257.03377595 491 261 C491.66 261 492.32 261 493 261 C493.12375 261.86625 493.12375 261.86625 493.25 262.75 C494.22610839 265.67832516 495.77960421 266.83961491 498 269 C504 276.36430318 504 276.36430318 504 279 C504.86625 279.37125 504.86625 279.37125 505.75 279.75 C508.32939979 281.18299988 510.06121592 282.78424676 512 285 C512 285.66 512 286.32 512 287 C512.5775 287.28875 513.155 287.5775 513.75 287.875 C515.83333333 288.91666667 517.91666667 289.95833333 520 291 C520 335.55 520 380.1 520 426 C506.635 429.96 506.635 429.96 493 434 C487.61444508 435.94173069 482.30915855 437.8900296 477 440 C472.80139417 441.60117727 468.58471998 443.15163875 464.36328125 444.69140625 C445.77895672 451.53332313 428.24971657 459.98835986 411.07250977 469.82421875 C408.82470128 471.09945089 406.55939613 472.34023009 404.29296875 473.58203125 C401.08724421 475.35996427 398.04005431 477.22948635 395.0625 479.375 C394.23621094 479.96539062 393.40992188 480.55578125 392.55859375 481.1640625 C391.71425781 481.76992188 390.86992188 482.37578125 390 483 C388.20968375 484.25193338 386.41804479 485.50197763 384.625 486.75 C382.31789135 488.35821254 380.04613329 489.96369294 377.8359375 491.703125 C376 493 376 493 374 493 C373.79503906 493.55300781 373.59007812 494.10601563 373.37890625 494.67578125 C371.48217173 497.87282669 368.79616726 499.89221084 365.9375 502.1875 C353.37908397 512.21137106 353.37908397 512.21137106 344 525 C343.34 525 342.68 525 342 525 C341.7525 525.53625 341.505 526.0725 341.25 526.625 C339.69347463 529.5823982 337.96564327 532.29724051 336 535 C335.34 535 334.68 535 334 535 C333.71624512 535.58249512 333.43249023 536.16499023 333.14013672 536.76513672 C332.08929176 538.82497285 330.9619167 540.78474314 329.7578125 542.7578125 C323.55880104 552.93876826 323.55880104 552.93876826 318.7890625 563.8359375 C317.99261425 566.02025597 317.02353325 568.03886734 316 570.125 C314.11374658 574.30756192 312.92894997 578.62430466 311.8125 583.0625 C311.64556641 583.72330566 311.47863281 584.38411133 311.30664062 585.06494141 C307.89737512 599.21760222 308.75458735 613.43275166 309.9375 627.8125 C310.02427002 628.86888672 310.11104004 629.92527344 310.20043945 631.01367188 C310.65683867 636.59286794 310.65683867 636.59286794 312 642 C312.03954234 644.33299825 312.04401732 646.66708189 312 649 C312.66 649 313.32 649 314 649 C314.24234375 649.9178125 314.4846875 650.835625 314.734375 651.78125 C316.88751007 659.89498781 316.88751007 659.89498781 320.25 667.5625 C321.90842669 670.82012385 322.44572447 672.43420428 322 676 C315.375 679 315.375 679 312 679 C312 679.66 312 680.32 312 681 C283.63203187 689.27399071 254.64363119 685.62189642 228 674 C228 673.34 228 672.68 228 672 C227.030625 671.79375 226.06125 671.5875 225.0625 671.375 C220.96528356 670.21619131 217.84918738 668.08654772 214.40625 665.6328125 C211.89049923 663.87570038 211.89049923 663.87570038 208.6328125 662.11328125 C204.97100625 660.04921099 201.68351568 657.64678318 198.375 655.0625 C197.55515625 654.43698242 197.55515625 654.43698242 196.71875 653.79882812 C191.9649727 650.11976842 187.79872207 646.08877617 184 641.4375 C182.22738009 639.33025286 180.69619415 637.76455047 178.5 636.0625 C174.99890273 633.17409476 172.63031043 629.67313552 170 626 C168.94190983 624.559251 167.87952472 623.12164461 166.8125 621.6875 C166.34457031 621.05199219 165.87664062 620.41648437 165.39453125 619.76171875 C164.06624472 617.99735121 164.06624472 617.99735121 162.5546875 616.6328125 C152.64616389 606.22637313 146.1943678 590.358556 139.5 577.75 C138.83121826 576.49775635 138.83121826 576.49775635 138.14892578 575.22021484 C137.53380127 574.05159912 137.53380127 574.05159912 136.90625 572.859375 C136.35420898 571.81475098 136.35420898 571.81475098 135.79101562 570.74902344 C135 569 135 569 135 567 C134.34 567 133.68 567 133 567 C132.52820313 565.71416016 132.52820313 565.71416016 132.046875 564.40234375 C129.08136442 556.46777909 129.08136442 556.46777909 125.1015625 549.0078125 C122.88818043 544.97349199 121.23273222 540.64621396 119.46484375 536.40234375 C117.69200651 532.28463379 115.81852206 528.32206854 113.45703125 524.5078125 C111.82907562 521.70580844 110.77791441 518.92516264 109.6875 515.875 C107.66173641 510.46889597 105.24468523 505.55250394 102.3984375 500.5390625 C101.14678532 498.26650965 100.07724601 496.01008677 99.0625 493.625 C95.28836794 484.88159405 90.7114894 476.6153192 85 469 C84.54367187 468.21238281 84.08734375 467.42476563 83.6171875 466.61328125 C76.75064036 455.51733912 66.46441829 445.95530601 54 442 C54 441.34 54 440.68 54 440 C36.46231737 440.34659452 23.58120799 441.98925743 10 454 C9.34 454.99 8.68 455.98 8 457 C7.34 457 6.68 457 6 457 C5.75507813 457.56074219 5.51015625 458.12148438 5.2578125 458.69921875 C-0.46053587 469.15917897 -12.68995331 480.09616504 -24 484 C-32.95938029 485.09195244 -41.59746231 484.50105737 -50 481 C-50.6703125 480.74476563 -51.340625 480.48953125 -52.03125 480.2265625 C-61.49987926 476.1310046 -69.5157104 467.58963239 -75 459 C-75 458.34 -75 457.68 -75 457 C-75.66 457 -76.32 457 -77 457 C-78.33819498 454.3773768 -79.6707151 451.75213401 -81 449.125 C-81.3815625 448.37863281 -81.763125 447.63226563 -82.15625 446.86328125 C-82.5171875 446.14785156 -82.878125 445.43242187 -83.25 444.6953125 C-83.58515625 444.03547363 -83.9203125 443.37563477 -84.265625 442.69580078 C-85 441 -85 441 -85 439 C-85.99 438.67 -86.98 438.34 -88 438 C-88.4851384 436.40597384 -88.95369725 434.80558176 -89.35229492 433.18774414 C-90.0916425 430.69046044 -91.11819208 428.47254219 -92.23828125 426.12109375 C-95.28410806 419.51960476 -97.81091813 412.76033292 -100.3125 405.9375 C-100.9940918 404.10541992 -100.9940918 404.10541992 -101.68945312 402.23632812 C-105 393.26051457 -105 393.26051457 -105 391 C-105.66 391 -106.32 391 -107 391 C-107.66 388.36 -108.32 385.72 -109 383 C-109.66 383 -110.32 383 -111 383 C-112.15625 381.19921875 -112.15625 381.19921875 -113.5 378.6875 C-118.95080346 369.2590832 -127.13617635 360.94355171 -135.5 354 C-138.51308314 351.49857248 -141.23341544 348.77070151 -144 346 C-145.82238298 344.30068024 -147.65591031 342.61323881 -149.5 340.9375 C-150.87671875 339.68259766 -150.87671875 339.68259766 -152.28125 338.40234375 C-154.04264852 336.84593557 -155.84371765 335.33287442 -157.6875 333.875 C-160.55429584 331.55057094 -162.66884926 328.85565965 -165 326 C-165.75667969 325.26007813 -166.51335937 324.52015625 -167.29296875 323.7578125 C-170.38348325 320.60932298 -173.09643464 317.2828265 -175.8125 313.8125 C-176.31458984 313.18408203 -176.81667969 312.55566406 -177.33398438 311.90820312 C-181 307.24463223 -181 307.24463223 -181 305 C-181.66 305 -182.32 305 -183 305 C-186.05759837 299.1023399 -188.81867497 293.27272223 -191 287 C-191.34160156 286.12988281 -191.68320312 285.25976562 -192.03515625 284.36328125 C-195.28156356 275.64801575 -195.33325539 270.00116918 -196 260 C-131.32 260 -66.64 260 0 260 C0 174.2 0 88.4 0 0 Z " fill="#CB0102" transform="translate(472,25)"/>
<path d="M0 0 C1.11696762 0.00222061 2.23393524 0.00444122 3.38475037 0.00672913 C4.64598221 0.00680466 5.90721405 0.00688019 7.20666504 0.00695801 C8.59341979 0.01206542 9.98017414 0.01728142 11.3669281 0.02259827 C12.77797394 0.0244625 14.18902042 0.02588638 15.60006714 0.02688599 C19.3204272 0.03071072 23.04074845 0.04054062 26.76109314 0.05158997 C30.55482966 0.06180504 34.34857243 0.06638381 38.14231873 0.07142639 C45.59090416 0.08216294 53.03945758 0.09923882 60.48802185 0.12025452 C60.33574127 0.87342957 60.18346069 1.62660461 60.02656555 2.40260315 C59.35559049 5.78854247 58.76940549 9.18761662 58.18333435 12.58900452 C57.92700364 14.06299411 57.67048699 15.53695138 57.4138031 17.01087952 C57.01508452 19.30290281 56.61735417 21.59507391 56.22288513 23.88783264 C54.76192311 32.36988705 53.15282163 40.75243407 51.15306091 49.12757874 C50.10133437 53.86034817 49.43523296 58.62906663 48.80052185 63.43275452 C48.60619568 64.84717834 48.60619568 64.84717834 48.40794373 66.29017639 C48.09600062 68.56620573 47.78937791 70.84280373 47.48802185 73.12025452 C46.82802185 73.12025452 46.16802185 73.12025452 45.48802185 73.12025452 C45.41889587 73.98336243 45.41889587 73.98336243 45.34837341 74.86390686 C44.72064402 81.91261046 43.55624713 88.79598589 42.23802185 95.74525452 C42.01622253 96.92893616 41.79442322 98.1126178 41.56590271 99.33216858 C39.95680843 107.84200948 38.22389708 116.32162108 36.43211365 124.79457092 C32.14792742 145.12748107 28.37454809 165.5698889 24.58006287 185.99916077 C23.16755646 193.58526449 21.69087893 201.15386091 20.14305115 208.71327209 C19.49778145 212.06949223 18.96996628 215.42457901 18.48802185 218.80775452 C17.8916109 222.87419278 17.1130513 226.77590876 16.05052185 230.74525452 C14.37756278 237.05494279 13.42309187 243.43384519 12.49021912 249.8863678 C11.58656933 256.02170703 11.58656933 256.02170703 10.48802185 257.12025452 C10.13176402 258.85925676 9.82922196 260.60933771 9.55052185 262.36244202 C9.37778748 263.4284967 9.2050531 264.49455139 9.02708435 265.59291077 C8.84919373 266.7156842 8.6713031 267.83845764 8.48802185 268.99525452 C8.13606865 271.20133795 7.78199697 273.40708475 7.42552185 275.61244202 C7.19155701 277.08753235 7.19155701 277.08753235 6.9528656 278.59242249 C6.48802185 281.12025452 6.48802185 281.12025452 5.48802185 284.12025452 C-15.30197815 284.12025452 -36.09197815 284.12025452 -57.51197815 284.12025452 C-56.26748902 274.1643415 -54.96415625 264.43946895 -53.07447815 254.62025452 C-52.85565979 253.46114563 -52.63684143 252.30203674 -52.41139221 251.10780334 C-51.78224817 247.77784707 -51.14734357 244.44902813 -50.51197815 241.12025452 C-50.0531036 238.68959116 -49.59623671 236.25856535 -49.14064026 233.82728577 C-48.79242644 231.97014538 -48.44139939 230.11353305 -48.09010315 228.25697327 C-47.52969521 225.21638156 -47.01052457 222.17154323 -46.51197815 219.12025452 C-45.85197815 219.12025452 -45.19197815 219.12025452 -44.51197815 219.12025452 C-44.46299377 218.24884827 -44.4140094 217.37744202 -44.36354065 216.47962952 C-43.86775322 208.58122295 -42.97898826 200.89683239 -41.51197815 193.12025452 C-40.85197815 193.12025452 -40.19197815 193.12025452 -39.51197815 193.12025452 C-39.47459534 192.5466217 -39.43721252 191.97298889 -39.3986969 191.38197327 C-38.4370985 178.95661361 -36.55359187 166.56224711 -33.3283844 154.52259827 C-31.52450471 147.00499439 -30.32357121 139.34866802 -28.97633362 131.73841858 C-27.23371299 121.91304341 -25.31968097 112.13393607 -23.26197815 102.37025452 C-20.31422508 88.36701512 -17.60655284 74.31877459 -14.89387512 60.26856995 C-13.8059497 54.63471711 -12.71152339 49.00215545 -11.61354065 43.37025452 C-11.45765472 42.57033081 -11.3017688 41.7704071 -11.14115906 40.94624329 C-9.92914951 34.72695167 -9.92914951 34.72695167 -9.32966614 31.65480042 C-8.91594062 29.53401451 -8.50293156 27.41309022 -8.09010315 25.29212952 C-7.95893097 24.62018555 -7.82775879 23.94824158 -7.69261169 23.25593567 C-6.99996653 19.69285509 -6.32694479 16.12711557 -5.67799377 12.55580139 C-5.5425415 11.81501343 -5.40708923 11.07422546 -5.26753235 10.31098938 C-5.00859572 8.88937106 -4.75296033 7.46714643 -4.50105286 6.04426575 C-3.42823839 0.16411813 -3.42823839 0.16411813 0 0 Z " fill="#CB0102" transform="translate(719.5119781494141,158.87974548339844)"/>
<path d="M0 0 C20.79 0 41.58 0 63 0 C62.3822998 9.265503 61.71692106 17.90276193 60.0625 26.9375 C58.38345283 36.2775989 57.18055888 45.55552897 56 55 C35.21 55 14.42 55 -7 55 C-5.85092295 36.61476726 -5.85092295 36.61476726 -4.625 29.1875 C-4.5115625 28.46498047 -4.398125 27.74246094 -4.28125 26.99804688 C-3.86095354 24.33095288 -3.42987099 21.66556756 -3 19 C-2.01 12.73 -1.02 6.46 0 0 Z " fill="#CB0001" transform="translate(732,65)"/>
<path d="M0 0 C46.86 0 93.72 0 142 0 C142.3125 43.5 142.3125 43.5 142.38793945 57.13867188 C142.42458498 61.24055778 142.42458498 61.24055778 142.4650116 65.34240723 C142.48096058 67.14249859 142.49138293 68.94264496 142.49711609 70.74279785 C142.55355896 86.41837483 144.23282317 100.63147688 149.28125 115.56640625 C150.53994862 119.36581134 151.45083052 123.03377595 152 127 C152.66 127 153.32 127 154 127 C153.67 127.66 153.34 128.32 153 129 C152.34 129 151.68 129 151 129 C150.49166409 127.75336669 149.99368855 126.50250613 149.5 125.25 C149.08234375 124.20585937 149.08234375 124.20585937 148.65625 123.140625 C148 121 148 121 148 117 C147.01 116.67 146.02 116.34 145 116 C143.12974851 111.11656557 142.63588572 106.33129341 142.24609375 101.13671875 C142.11767362 98.95039833 142.11767362 98.95039833 141 97 C139.99706255 91.05907027 139.85851135 85.09353246 139.88647461 79.08374023 C139.88635407 78.23020745 139.88623354 77.37667467 139.88610935 76.49727726 C139.88684849 73.76768844 139.89443061 71.03817016 139.90234375 68.30859375 C139.90381627 66.61006707 139.90483507 64.91153993 139.90539551 63.2130127 C139.91061246 56.95450149 139.92457371 50.69600003 139.9375 44.4375 C139.958125 30.433125 139.97875 16.42875 140 2 C93.8 1.67 47.6 1.34 0 1 C0 0.67 0 0.34 0 0 Z " fill="#C64244" transform="translate(811,159)"/>
<path d="M0 0 C20.79 0 41.58 0 63 0 C61.875 16.875 61.875 16.875 61 23 C60.67 23 60.34 23 60 23 C60 17.39 60 11.78 60 6 C52.75075007 5.7789884 45.50150874 5.5751619 38.25095654 5.40159988 C34.88426048 5.32032075 31.51811461 5.23150852 28.15209961 5.12548828 C24.28261618 5.00734698 20.41326109 4.91515761 16.54296875 4.828125 C15.33352097 4.78560608 14.12407318 4.74308716 12.87797546 4.69927979 C11.75703995 4.67895691 10.63610443 4.65863403 9.48120117 4.63769531 C8.49302902 4.61104797 7.50485687 4.58440063 6.48674011 4.5569458 C3.87612606 4.77550073 3.87612606 4.77550073 2.20039368 6.81951904 C0.71504067 9.51762051 0.34563495 11.95841243 0 15 C-0.33 15 -0.66 15 -1 15 C-1.09289153 9.70518291 -0.76541303 5.35789122 0 0 Z " fill="#CB0205" transform="translate(732,65)"/>
<path d="M0 0 C64.68 0 129.36 0 196 0 C196 0.33 196 0.66 196 1 C131.98 1 67.96 1 2 1 C2.99 6.61 3.98 12.22 5 18 C5 18.99 5 19.98 5 21 C6.32 21.66 7.64 22.32 9 23 C9 26.63 9 30.26 9 34 C6.43574301 32.7178715 6.41952786 31.90747789 5.52734375 29.23828125 C4.98896528 27.59909915 4.45942118 25.95699616 3.9375 24.3125 C3.5343457 23.1359082 3.5343457 23.1359082 3.12304688 21.93554688 C0.67450138 14.28460548 0.60977815 8.53689416 0 0 Z " fill="#B0080B" transform="translate(276,286)"/>
<path d="M0 0 C0.33 0 0.66 0 1 0 C1 7 1 7 -2 25 C17.47 25 36.94 25 57 25 C57.63024451 21.84877745 58.18652748 18.85641121 58.5625 15.6875 C58.706875 14.470625 58.85125 13.25375 59 12 C58.34 11.67 57.68 11.34 57 11 C57.33 10.01 57.66 9.02 58 8 C58.99 7.67 59.98 7.34 61 7 C61.66 6.01 62.32 5.02 63 4 C62.19866351 11.85309755 60.57121412 19.14392942 59 27 C38.21 27 17.42 27 -4 27 C-1.67857143 8.42857143 -1.67857143 8.42857143 0 0 Z " fill="#B21E1F" transform="translate(666,416)"/>
<path d="M0 0 C1.11696762 0.00222061 2.23393524 0.00444122 3.38475037 0.00672913 C4.64598221 0.00680466 5.90721405 0.00688019 7.20666504 0.00695801 C8.59341979 0.01206542 9.98017414 0.01728142 11.3669281 0.02259827 C12.77797394 0.0244625 14.18902042 0.02588638 15.60006714 0.02688599 C19.3204272 0.03071072 23.04074845 0.04054062 26.76109314 0.05158997 C30.55482966 0.06180504 34.34857243 0.06638381 38.14231873 0.07142639 C45.59090416 0.08216294 53.03945758 0.09923882 60.48802185 0.12025452 C59.87352188 3.45848409 59.14241356 6.14234943 57.48802185 9.12025452 C57.48802185 6.81025452 57.48802185 4.50025452 57.48802185 2.12025452 C38.01802185 2.12025452 18.54802185 2.12025452 -1.51197815 2.12025452 C-1.84197815 5.09025452 -2.17197815 8.06025452 -2.51197815 11.12025452 C-3.17197815 11.12025452 -3.83197815 11.12025452 -4.51197815 11.12025452 C-4.56096252 12.18244202 -4.6099469 13.24462952 -4.66041565 14.33900452 C-5.62264891 33.23092528 -5.62264891 33.23092528 -9.51197815 37.12025452 C-8.54923595 28.05020959 -7.23341288 19.12823554 -5.44947815 10.18275452 C-5.27513245 9.3007135 -5.10078674 8.41867249 -4.92115784 7.50990295 C-3.41951186 0.16370037 -3.41951186 0.16370037 0 0 Z " fill="#C4393B" transform="translate(719.5119781494141,158.87974548339844)"/>
<path d="M0 0 C15.84 0 31.68 0 48 0 C48 0.33 48 0.66 48 1 C32.49 1 16.98 1 1 1 C1 3.64 1 6.28 1 9 C0.34 9 -0.32 9 -1 9 C-0.9484375 9.90878906 -0.896875 10.81757813 -0.84375 11.75390625 C-0.84375 17.28459108 -2.26838878 22.57499817 -3.5 27.9375 C-3.73847656 29.00291016 -3.97695313 30.06832031 -4.22265625 31.16601562 C-4.80850659 33.77890813 -5.40111458 36.39007007 -6 39 C-6.66 39 -7.32 39 -8 39 C-8 42.3 -8 45.6 -8 49 C-8.66 49 -9.32 49 -10 49 C-10.04898438 49.60585938 -10.09796875 50.21171875 -10.1484375 50.8359375 C-10.55754435 55.42075566 -11.08163483 59.96459576 -11.875 64.5 C-12.01679687 65.3146875 -12.15859375 66.129375 -12.3046875 66.96875 C-13 69 -13 69 -16 71 C-15.14824614 62.19854343 -13.75491729 53.87806712 -10.82446289 45.52001953 C-7.5598104 35.54141632 -5.77590489 25.11951224 -3.80664062 14.828125 C-3.49823242 13.24644531 -3.49823242 13.24644531 -3.18359375 11.6328125 C-3.00368896 10.69324707 -2.82378418 9.75368164 -2.63842773 8.78564453 C-1.95534623 5.8051627 -0.96694738 2.90084213 0 0 Z " fill="#BB2729" transform="translate(779,325)"/>
<path d="M0 0 C2.475 0.99 2.475 0.99 5 2 C5 46.55 5 91.1 5 137 C0.71 137.99 -3.58 138.98 -8 140 C-5.75011007 136.6251651 -4.81263347 136.06399073 -1 135 C0.65 135.33 2.3 135.66 4 136 C4 92.44 4 48.88 4 4 C3.01 4 2.02 4 1 4 C0.67 2.68 0.34 1.36 0 0 Z " fill="#AF0F11" transform="translate(987,314)"/>
<path d="M0 0 C0.99 0 1.98 0 3 0 C2.73843708 2.39714726 2.46580996 4.79228119 2.1875 7.1875 C2.11724609 7.84169922 2.04699219 8.49589844 1.97460938 9.16992188 C1.16460986 16.00631782 -0.41925473 22.15010385 -2 29 C13.18 29 28.36 29 44 29 C43.67 31.64 43.34 34.28 43 37 C42.67 37 42.34 37 42 37 C42 35.02 42 33.04 42 31 C26.82 31 11.64 31 -4 31 C-4 24.79499375 -3.98211213 23.95528032 -2 19 C-1.47015889 15.74389889 -1.17380086 12.47186026 -0.875 9.1875 C-0.78863281 8.30384766 -0.70226562 7.42019531 -0.61328125 6.50976562 C-0.40221556 4.34047942 -0.20020574 2.17031542 0 0 Z " fill="#B90C0E" transform="translate(609,296)"/>
<path d="M0 0 C0.99 0 1.98 0 3 0 C1.66666667 10.66666667 0.33333333 21.33333333 -1 32 C-21.79 32 -42.58 32 -64 32 C-62.875 14 -62.875 14 -62 8 C-61.67 8 -61.34 8 -61 8 C-60.94475869 9.95799743 -60.906662 11.91647937 -60.875 13.875 C-60.85179687 14.96554688 -60.82859375 16.05609375 -60.8046875 17.1796875 C-61 21 -61 21 -63 31 C-42.87 31 -22.74 31 -2 31 C-1.67 24.73 -1.34 18.46 -1 12 C-0.3671875 3.9140625 -0.3671875 3.9140625 0 0 Z " fill="#B42828" transform="translate(789,88)"/>
<path d="M0 0 C0.66 0.33 1.32 0.66 2 1 C2.51643053 8.4021709 0.81874286 13.11878096 -1 21 C-16.84 21 -32.68 21 -49 21 C-49 20.34 -49 19.68 -49 19 C-33.49 19 -17.98 19 -2 19 C-1.34 12.73 -0.68 6.46 0 0 Z " fill="#F4B4B5" transform="translate(828,304)"/>
<path d="M0 0 C0.33 0 0.66 0 1 0 C1.21988087 5.49702183 0.96796993 9.79066783 -1 15 C-1.36920191 16.99369031 -1.71325582 18.99279077 -2 21 C-1.34 21 -0.68 21 0 21 C0.18451025 30.41002278 0.18451025 30.41002278 -1 35 C-1.33 35 -1.66 35 -2 35 C-2.33 37.31 -2.66 39.62 -3 42 C-3.66 41.67 -4.32 41.34 -5 41 C-5.33 43.64 -5.66 46.28 -6 49 C-6.66 48.34 -7.32 47.68 -8 47 C-7.8984375 44.1484375 -7.8984375 44.1484375 -7.375 40.375 C-7.28089844 39.68929932 -7.18679688 39.00359863 -7.08984375 38.29711914 C-6.15224119 31.6637257 -5.07857311 25.04918342 -4 18.4375 C-3.83419434 17.4151123 -3.66838867 16.39272461 -3.49755859 15.33935547 C-2.62001908 10.10425958 -1.59141861 5.06554228 0 0 Z " fill="#C31113" transform="translate(799,445)"/>
<path d="M0 0 C15.84 0 31.68 0 48 0 C48 0.66 48 1.32 48 2 C32.82 2.33 17.64 2.66 2 3 C1.67 5.31 1.34 7.62 1 10 C0.67 10.33 0.34 10.66 0 11 C-0.36760731 13.32817964 -0.70241581 15.6618385 -1 18 C-1.66 18 -2.32 18 -3 18 C-2.31836936 11.86532422 -1.22043166 6.10215831 0 0 Z " fill="#FCCECD" transform="translate(622,246)"/>
<path d="M0 0 C20.79 0 41.58 0 63 0 C61.875 16.875 61.875 16.875 61 23 C60.67 23 60.34 23 60 23 C59.97193841 21.56262294 59.95315002 20.12506577 59.9375 18.6875 C59.92589844 17.88699219 59.91429687 17.08648437 59.90234375 16.26171875 C60.04503327 11.49588866 60.56832867 6.74838463 61 2 C41.53 2 22.06 2 2 2 C1.34 6.29 0.68 10.58 0 15 C-0.33 15 -0.66 15 -1 15 C-1.09289153 9.70518291 -0.76541303 5.35789122 0 0 Z " fill="#B82322" transform="translate(732,65)"/>
<path d="M0 0 C0.33 0 0.66 0 1 0 C2.13218374 4.86839009 1.97821674 6.05445816 0 11 C14.85 11 29.7 11 45 11 C45 12.98 45 14.96 45 17 C44.505 15.02 44.505 15.02 44 13 C28.82 13 13.64 13 -2 13 C-1 4 -1 4 0 0 Z " fill="#F6B9BA" transform="translate(609,312)"/>
<path d="M0 0 C0.99 0 1.98 0 3 0 C3.495 1.485 3.495 1.485 4 3 C5.98 3.33 7.96 3.66 10 4 C7.39483331 6.60516669 5.24687984 6.88207257 1.6875 7.8125 C-5.40813699 9.76289047 -12.16854048 12.26010982 -19 15 C-26.57142857 18 -26.57142857 18 -30 18 C-29.505 16.515 -29.505 16.515 -29 15 C-25.24092359 13.37676246 -22.07913787 12.76005071 -18 13 C-18 12.34 -18 11.68 -18 11 C-16.29196692 10.26320142 -14.58334877 9.52771447 -12.87109375 8.80078125 C-11.36456306 8.15602386 -9.86803509 7.48792064 -8.375 6.8125 C-5.77986487 5.92469061 -3.72361231 5.84436501 -1 6 C-0.67 4.02 -0.34 2.04 0 0 Z " fill="#C20E0F" transform="translate(968,450)"/>
<path d="M0 0 C0.33 0 0.66 0 1 0 C1.0878954 3.35399849 1.14068879 6.7076964 1.1875 10.0625 C1.21263672 11.00544922 1.23777344 11.94839844 1.26367188 12.91992188 C1.32478517 18.76642736 0.74104641 22.81287544 -2 28 C-2.66 28 -3.32 28 -4 28 C-4.72994559 31.59711928 -5.40974758 35.20060329 -6.0625 38.8125 C-6.23910156 39.78832031 -6.41570313 40.76414062 -6.59765625 41.76953125 C-6.73042969 42.50558594 -6.86320313 43.24164063 -7 44 C-8.15652656 40.52681742 -7.85092924 37.93862721 -7.22265625 34.359375 C-7.03896484 33.28945313 -6.85527344 32.21953125 -6.66601562 31.1171875 C-6.46685547 30.00601562 -6.26769531 28.89484375 -6.0625 27.75 C-5.86720703 26.62335938 -5.67191406 25.49671875 -5.47070312 24.3359375 C-4.98773667 21.55593546 -4.49724577 18.77747735 -4 16 C-3.34 16 -2.68 16 -2 16 C-1.34 10.72 -0.68 5.44 0 0 Z " fill="#C21C1F" transform="translate(837,272)"/>
<path d="M0 0 C1.32 0.66 2.64 1.32 4 2 C3.34 3.32 2.68 4.64 2 6 C2.66 6.33 3.32 6.66 4 7 C3.09456151 9.71631546 2.07525194 12.34771188 1 15 C0.01 14.67 -0.98 14.34 -2 14 C-1.98839844 14.60328125 -1.97679687 15.2065625 -1.96484375 15.828125 C-1.95582031 16.62734375 -1.94679688 17.4265625 -1.9375 18.25 C-1.92589844 19.03890625 -1.91429687 19.8278125 -1.90234375 20.640625 C-1.99614694 22.90691002 -2.36758937 24.8288895 -3 27 C-3.66 27 -4.32 27 -5 27 C-5.21755999 20.87322983 -4.47140679 15.51500931 -3.0625 9.5625 C-2.78889648 8.34143555 -2.78889648 8.34143555 -2.50976562 7.09570312 C-1.14490327 1.14490327 -1.14490327 1.14490327 0 0 Z " fill="#C50202" transform="translate(843,245)"/>
<path d="M0 0 C0.33 0 0.66 0 1 0 C0.9278125 1.01578125 0.855625 2.0315625 0.78125 3.078125 C0.6866811 4.46869455 0.59299352 5.85932421 0.5 7.25 C0.45085449 7.97276123 0.40170898 8.69552246 0.35107422 9.44018555 C0.00758588 14.86239431 0.00314447 20.21411002 0.2578125 25.64453125 C-0.0577989 28.5280718 -0.92171922 29.09224482 -3 31 C-3.165 32.175625 -3.33 33.35125 -3.5 34.5625 C-3.665 35.696875 -3.83 36.83125 -4 38 C-4.99 38.66 -5.98 39.32 -7 40 C-6.68905914 37.45813394 -6.37629464 34.91651402 -6.0625 32.375 C-5.97548828 31.66214844 -5.88847656 30.94929688 -5.79882812 30.21484375 C-5.29217395 26.12408039 -4.7110957 22.06157365 -4 18 C-3.34 18 -2.68 18 -2 18 C-1.93941406 17.03578125 -1.87882813 16.0715625 -1.81640625 15.078125 C-1.73261719 13.81484375 -1.64882813 12.5515625 -1.5625 11.25 C-1.48128906 9.99703125 -1.40007813 8.7440625 -1.31640625 7.453125 C-1.07484478 4.81682447 -0.75716066 2.51962706 0 0 Z " fill="#BF191C" transform="translate(677,360)"/>
<path d="M0 0 C0.33 0 0.66 0 1 0 C1.05420701 2.56278699 1.09377007 5.12441483 1.125 7.6875 C1.14175781 8.40873047 1.15851562 9.12996094 1.17578125 9.87304688 C1.21433473 14.09465331 0.78903361 17.1891589 -1 21 C-1.34805375 22.36643325 -1.66146921 23.74221721 -1.9375 25.125 C-2.70647352 28.73372613 -3.56067441 32.3065068 -4.5 35.875 C-4.85578125 37.23238281 -4.85578125 37.23238281 -5.21875 38.6171875 C-6 41 -6 41 -8 44 C-7.51905371 40.23258736 -6.92842401 36.57151185 -6.0546875 32.875 C-4.74976442 27.08699649 -3.95864132 21.24626952 -3.14453125 15.37304688 C-2.39389736 10.138788 -1.37014107 5.10850012 0 0 Z " fill="#FBDCDC" transform="translate(742,352)"/>
<path d="M0 0 C0.33 0 0.66 0 1 0 C1.15855469 0.969375 1.31710937 1.93875 1.48046875 2.9375 C2.86901541 11.038375 4.66851303 18.79673589 7.28588867 26.59375 C8.54987856 30.38228092 9.45210557 34.04298471 10 38 C10.66 38 11.32 38 12 38 C11.67 38.66 11.34 39.32 11 40 C10.34 40 9.68 40 9 40 C8.49166409 38.75336669 7.99368855 37.50250613 7.5 36.25 C7.2215625 35.55390625 6.943125 34.8578125 6.65625 34.140625 C6 32 6 32 6 28 C5.01 27.67 4.02 27.34 3 27 C-0.28210816 18.43005091 -0.17347623 9.05931433 0 0 Z " fill="#C33537" transform="translate(953,248)"/>
<path d="M0 0 C0.33 0 0.66 0 1 0 C0.85492922 1.33341652 0.7088897 2.66672764 0.5625 4 C0.48128906 4.7425 0.40007813 5.485 0.31640625 6.25 C0.06917481 8.39877699 -0.21509701 10.54330063 -0.51367188 12.68554688 C-1.01891808 16.73096625 -1.11410704 20.70145431 -1.09765625 24.78125 C-1.09553383 25.82968079 -1.09553383 25.82968079 -1.09336853 26.89929199 C-1.0878367 29.09957429 -1.07529777 31.29974923 -1.0625 33.5 C-1.05747616 35.00520685 -1.05291482 36.51041532 -1.04882812 38.015625 C-1.03788977 41.67711735 -1.02067359 45.33854817 -1 49 C-1.66 49 -2.32 49 -3 49 C-3.07451939 43.30748309 -3.12877612 37.61525425 -3.16479492 31.92236328 C-3.17982075 29.98839365 -3.20024726 28.05445774 -3.22631836 26.12060547 C-3.26297591 23.33031864 -3.27978868 20.54048489 -3.29296875 17.75 C-3.30845261 16.89446533 -3.32393646 16.03893066 -3.33988953 15.1574707 C-3.34146987 9.43678009 -2.29356659 5.24848456 0 0 Z " fill="#BC2629" transform="translate(782,607)"/>
<path d="M0 0 C0.66 0 1.32 0 2 0 C2.06993164 0.62567871 2.13986328 1.25135742 2.21191406 1.89599609 C2.53891369 4.72491084 2.89407119 7.54958571 3.25 10.375 C3.35957031 11.35984375 3.46914063 12.3446875 3.58203125 13.359375 C3.70449219 14.30039062 3.82695312 15.24140625 3.953125 16.2109375 C4.05786133 17.08024902 4.16259766 17.94956055 4.27050781 18.84521484 C4.89988633 21.53643268 4.89988633 21.53643268 9 23 C9 26.63 9 30.26 9 34 C6.43574301 32.7178715 6.41952786 31.90747789 5.52734375 29.23828125 C4.98462716 27.60053034 4.45548397 25.95824055 3.9375 24.3125 C3.66728027 23.46067139 3.39706055 22.60884277 3.11865234 21.73120117 C0.92166699 14.45223822 0.02487645 7.62463063 0 0 Z " fill="#B82322" transform="translate(276,286)"/>
<path d="M0 0 C0.66 0 1.32 0 2 0 C3.81242323 4.0188515 5.33501617 7.61110675 6 12 C6.66 12 7.32 12 8 12 C8 12.99 8 13.98 8 15 C8.66 15.33 9.32 15.66 10 16 C9.67 16.99 9.34 17.98 9 19 C9.99 19.33 10.98 19.66 12 20 C12 20.66 12 21.32 12 22 C12.66 22.66 13.32 23.32 14 24 C14.56520003 26.65537372 14.73788198 29.29144713 15 32 C15.66 32 16.32 32 17 32 C17.33 34.31 17.66 36.62 18 39 C14.57122477 37.28561239 13.90315603 33.23672336 12.5625 29.8125 C9.12882273 20.98657696 9.12882273 20.98657696 4.5 12.75 C2.3005589 8.71769131 1.20873168 4.41487104 0 0 Z " fill="#CC4546" transform="translate(581,537)"/>
<path d="M0 0 C1.24769691 3.5517772 0.72044302 5.75984764 -0.375 9.3125 C-1.62416602 13.56765 -2.51085213 17.59766917 -3 22 C-3.66 22 -4.32 22 -5 22 C-5.04898438 22.67546875 -5.09796875 23.3509375 -5.1484375 24.046875 C-5.26058594 25.38492187 -5.26058594 25.38492187 -5.375 26.75 C-5.47941406 28.07257813 -5.47941406 28.07257813 -5.5859375 29.421875 C-5.99850055 31.99066382 -6.71160957 33.75841015 -8 36 C-8.19672365 34.27185839 -8.38196799 32.54240803 -8.5625 30.8125 C-8.66691406 29.84957031 -8.77132812 28.88664062 -8.87890625 27.89453125 C-8.99758751 25.05766623 -8.67765639 22.74576329 -8 20 C-7.01 19.67 -6.02 19.34 -5 19 C-4.34 14.38 -3.68 9.76 -3 5 C-2.34 5 -1.68 5 -1 5 C-0.67 3.35 -0.34 1.7 0 0 Z " fill="#C32021" transform="translate(642,370)"/>
<path d="M0 0 C1.38306878 2.76613757 0.43777506 4.49018431 -0.33496094 7.35986328 C-3.57756473 19.54984625 -3.41489056 31.46711373 -3 44 C-5.31686741 40.33674395 -5.24441047 37.20440834 -5.23046875 32.93359375 C-5.23001053 32.25829117 -5.22955231 31.58298859 -5.2290802 30.88722229 C-5.22606775 29.46426631 -5.21821164 28.04131333 -5.20581055 26.6184082 C-5.18753316 24.44145013 -5.18530119 22.26491751 -5.18554688 20.08789062 C-5.14776543 9.4432963 -5.14776543 9.4432963 -4 6 C-3.34 6 -2.68 6 -2 6 C-1.34 4.02 -0.68 2.04 0 0 Z " fill="#C02728" transform="translate(623,452)"/>
<path d="M0 0 C0.66 0 1.32 0 2 0 C1.50130596 5.36891879 0.97772468 10.69235173 0 16 C-0.66 16 -1.32 16 -2 16 C-1.9690625 17.1240625 -1.938125 18.248125 -1.90625 19.40625 C-1.90625 24.21201101 -2.64701153 28.78166741 -3.5 33.5 C-3.64308594 34.32242188 -3.78617188 35.14484375 -3.93359375 35.9921875 C-4.28306912 37.99584627 -4.64068156 39.99808298 -5 42 C-5.33 42 -5.66 42 -6 42 C-6 36.06 -6 30.12 -6 24 C-5.01 23.67 -4.02 23.34 -3 23 C-3.33 20.03 -3.66 17.06 -4 14 C-3.34 13.67 -2.68 13.34 -2 13 C-1.30662208 9.9600352 -1.30662208 9.9600352 -0.875 6.4375 C-0.62363281 4.64119141 -0.62363281 4.64119141 -0.3671875 2.80859375 C-0.24601563 1.88175781 -0.12484375 0.95492188 0 0 Z " fill="#F7C8C5" transform="translate(680,336)"/>
<path d="M0 0 C0.33 0 0.66 0 1 0 C1.09765625 6.15234375 1.09765625 6.15234375 1 8 C0.67 8.33 0.34 8.66 0 9 C-0.02065455 10.3750027 0.00893284 11.75088589 0.0625 13.125 C0.09653915 17.46839568 -0.61558321 20.84674962 -2 25 C-2.71164356 27.31148346 -3.41971592 29.62406819 -4.125 31.9375 C-4.74931391 33.9585454 -5.37408521 35.97944982 -6 38 C-7.34316556 33.62684653 -6.31555955 30.08468157 -5.25 25.75 C-4.87272029 24.14376293 -4.49777015 22.53697712 -4.125 20.9296875 C-3.93550781 20.11467773 -3.74601563 19.29966797 -3.55078125 18.45996094 C-2.69002306 14.61554624 -1.96071695 10.74955369 -1.25 6.875 C-1.12270508 6.18245117 -0.99541016 5.48990234 -0.86425781 4.77636719 C-0.57360754 3.18471093 -0.28637717 1.59243064 0 0 Z " fill="#F6C1C0" transform="translate(759,264)"/>
<path d="M0 0 C0.33 0 0.66 0 1 0 C0.63665846 7.31694682 -0.12380448 14.48468346 -1.4375 21.6875 C-1.55971924 22.38230469 -1.68193848 23.07710937 -1.80786133 23.79296875 C-2.7548222 28.7548222 -2.7548222 28.7548222 -5 31 C-5 24.4 -5 17.8 -5 11 C-4.34 11.66 -3.68 12.32 -3 13 C-2.01 8.71 -1.02 4.42 0 0 Z " fill="#BC1E1F" transform="translate(776,169)"/>
<path d="M0 0 C0.66 0.33 1.32 0.66 2 1 C1.67 1.66 1.34 2.32 1 3 C0.34 3 -0.32 3 -1 3 C-1.268125 3.598125 -1.53625 4.19625 -1.8125 4.8125 C-4.12922537 9.080152 -7.06861473 10.58378371 -11.30078125 12.890625 C-13.73944864 14.48276647 -15.20761732 16.7296486 -17 19 C-19.75 20.3125 -19.75 20.3125 -22 21 C-17.30164358 14.95925604 -11.79673536 10.29845655 -5.92578125 5.453125 C-3.83168361 3.69732618 -1.87013232 1.98247242 0 0 Z " fill="#F9CECC" transform="translate(848,517)"/>
<path d="M0 0 C6.23834344 0.27725971 9.84541694 1.25121232 15 5 C17.7282504 5.78215588 17.7282504 5.78215588 20 6 C20 6.66 20 7.32 20 8 C20.66 8.33 21.32 8.66 22 9 C14.22490717 8.00319323 7.11309675 5.17819217 0 2 C0 1.34 0 0.68 0 0 Z " fill="#C12829" transform="translate(700,697)"/>
<path d="M0 0 C1.8871875 0.2475 1.8871875 0.2475 3.8125 0.5 C12.17409338 1.35915069 20.60582351 1.07756426 29 1 C26.70606998 3.63346478 26.24700298 3.97140261 22.55859375 4.3984375 C21.18492636 4.41047548 19.81096195 4.40163223 18.4375 4.375 C17.72529297 4.36919922 17.01308594 4.36339844 16.27929688 4.35742188 C10.51236169 4.21651034 5.36804389 3.16786388 0 1 C0 0.67 0 0.34 0 0 Z " fill="#C03636" transform="translate(422,505)"/>
<path d="M0 0 C1.98 0 3.96 0 6 0 C6 0.66 6 1.32 6 2 C5.34 2 4.68 2 4 2 C4.28875 2.60328125 4.5775 3.2065625 4.875 3.828125 C5.24625 4.62734375 5.6175 5.4265625 6 6.25 C6.37125 7.03890625 6.7425 7.8278125 7.125 8.640625 C8 11 8 11 8 15 C8.99 15.33 9.98 15.66 11 16 C11.33 17.98 11.66 19.96 12 22 C8.59533551 18.03555959 6.15878467 13.91149444 3.75 9.3125 C3.20472656 8.29833008 3.20472656 8.29833008 2.6484375 7.26367188 C0 2.26051457 0 2.26051457 0 0 Z " fill="#BA191D" transform="translate(609,596)"/>
<path d="M0 0 C8.05293006 -0.4026465 8.05293006 -0.4026465 12 3 C14.64934822 3.71433121 14.64934822 3.71433121 17 4 C17 4.66 17 5.32 17 6 C17.85464844 6.12117187 18.70929687 6.24234375 19.58984375 6.3671875 C21.24693359 6.61855469 21.24693359 6.61855469 22.9375 6.875 C24.59072266 7.11863281 24.59072266 7.11863281 26.27734375 7.3671875 C27.17582031 7.57601562 28.07429687 7.78484375 29 8 C29.33 8.66 29.66 9.32 30 10 C19.36167542 9.44974183 9.62560795 5.35444169 0 1 C0 0.67 0 0.34 0 0 Z " fill="#F7CDCB" transform="translate(638,520)"/>
<path d="M0 0 C0.33 0 0.66 0 1 0 C1.18175781 1.25554687 1.36351562 2.51109375 1.55078125 3.8046875 C3.42889149 16.59536921 3.42889149 16.59536921 7 29 C4.43135272 27.71567636 4.053461 26.63365249 3 24 C3 22.68 3 21.36 3 20 C2.01 19.67 1.02 19.34 0 19 C-1.10914408 12.46837378 -0.78441153 6.56492112 0 0 Z " fill="#FBD5D4" transform="translate(275,285)"/>
<path d="M0 0 C0.97406605 3.09393791 0.97566333 5.18555744 0.29296875 8.34375 C0.11926758 9.17293945 -0.05443359 10.00212891 -0.23339844 10.85644531 C-0.42450195 11.72881836 -0.61560547 12.60119141 -0.8125 13.5 C-1.19027932 15.296565 -1.56658539 17.09344044 -1.94140625 18.890625 C-2.12461426 19.76267578 -2.30782227 20.63472656 -2.49658203 21.53320312 C-3.47576582 26.33129868 -4.2524814 31.16080065 -5 36 C-5.33 36 -5.66 36 -6 36 C-6.05382106 33.37472811 -6.09358313 30.75055287 -6.125 28.125 C-6.14175781 27.37863281 -6.15851562 26.63226563 -6.17578125 25.86328125 C-6.1933959 23.90805539 -6.10320189 21.95257979 -6 20 C-5.34 19.34 -4.68 18.68 -4 18 C-3.75787127 16.01871492 -3.75787127 16.01871492 -3.875 13.875 C-3.936875 11.956875 -3.936875 11.956875 -4 10 C-3.34 10 -2.68 10 -2 10 C-1.855625 8.72125 -1.71125 7.4425 -1.5625 6.125 C-1.29357254 3.74307106 -1.07773654 2.15547309 0 0 Z " fill="#F7C5C3" transform="translate(840,252)"/>
<path d="M0 0 C-2.7832204 2.7832204 -6.12563402 3.72772005 -9.75 5.0625 C-10.45382812 5.33126953 -11.15765625 5.60003906 -11.8828125 5.87695312 C-15.90922332 7.37750214 -19.71204598 8.45389265 -24 9 C-23.67 8.01 -23.34 7.02 -23 6 C-19.24092359 4.37676246 -16.07913787 3.76005071 -12 4 C-12 3.34 -12 2.68 -12 2 C-7.8794254 0.00214565 -4.54805635 -0.17835515 0 0 Z " fill="#BC2125" transform="translate(962,459)"/>
<path d="M0 0 C0.66 0.33 1.32 0.66 2 1 C0.9171875 1.8353125 0.9171875 1.8353125 -0.1875 2.6875 C-2.98815085 4.99025737 -5.46603799 7.40710864 -8 10 C-9.43615967 11.43883908 -10.87373404 12.87626708 -12.3125 14.3125 C-13.00988281 15.00988281 -13.70726562 15.70726562 -14.42578125 16.42578125 C-15.20501953 17.20501953 -15.20501953 17.20501953 -16 18 C-16.99 17.67 -17.98 17.34 -19 17 C-13.42225671 10.09574469 -7.34804591 4.9572295 0 0 Z " fill="#F7C1C2" transform="translate(494,469)"/>
<path d="M0 0 C0.33 1.32 0.66 2.64 1 4 C1.66 4 2.32 4 3 4 C2.29843593 11.15595346 0.69214979 18.01855181 -1 25 C-1.33 25 -1.66 25 -2 25 C-2 20.71 -2 16.42 -2 12 C-1.34 12 -0.68 12 0 12 C-0.350625 11.4225 -0.70125 10.845 -1.0625 10.25 C-2.18065988 7.56641628 -1.92603121 6.69390896 -1 4 C-0.814375 3.2575 -0.62875 2.515 -0.4375 1.75 C-0.293125 1.1725 -0.14875 0.595 0 0 Z " fill="#F9D7D5" transform="translate(698,236)"/>
<path d="M0 0 C0.33 0 0.66 0 1 0 C1.12514425 7.50865496 1.12514425 7.50865496 0.5234375 9.87109375 C-0.16764311 12.68183206 -0.27120658 15.42442445 -0.4375 18.3125 C-0.77713659 23.1769725 -1.39710212 27.40502607 -3 32 C-3.33 32 -3.66 32 -4 32 C-4.16689426 25.75960596 -3.54459063 19.90747988 -2.5625 13.75 C-2.42779297 12.86570312 -2.29308594 11.98140625 -2.15429688 11.0703125 C-1.57510215 7.32956217 -0.9646971 3.66324872 0 0 Z " fill="#C02C2D" transform="translate(790,492)"/>
<path d="M0 0 C0.99 0 1.98 0 3 0 C1.92369243 9.86404233 0.47257757 19.37343133 -2 29 C-2.33 29 -2.66 29 -3 29 C-3.125 21.25 -3.125 21.25 -2 19 C-1.78217533 17.55487563 -1.61026332 16.10263322 -1.46484375 14.6484375 C-1.37783203 13.79765625 -1.29082031 12.946875 -1.20117188 12.0703125 C-1.11416016 11.18085938 -1.02714844 10.29140625 -0.9375 9.375 C-0.84662109 8.4778125 -0.75574219 7.580625 -0.66210938 6.65625 C-0.43790708 4.43782728 -0.21735434 2.2191024 0 0 Z " fill="#C12626" transform="translate(609,296)"/>
<path d="M0 0 C0.99 0.495 0.99 0.495 2 1 C1.01 1.495 1.01 1.495 0 2 C0 1.34 0 0.68 0 0 Z M-6 1 C-3.03 1.495 -3.03 1.495 0 2 C0 2.66 0 3.32 0 4 C2.64 4.33 5.28 4.66 8 5 C8.33 5.99 8.66 6.98 9 8 C11.50447516 9.21869929 11.50447516 9.21869929 14 10 C13.34 10.66 12.68 11.32 12 12 C7.33815029 10.19234399 3.57806471 8.13157091 -0.421875 5.140625 C-2.19008596 3.86261113 -4.00385156 2.87830531 -6 2 C-6 1.67 -6 1.34 -6 1 Z M8 4 C10 5 10 5 10 5 Z " fill="#C22224" transform="translate(686,685)"/>
<path d="M0 0 C0.33 0 0.66 0 1 0 C1 4.29 1 8.58 1 13 C0.34 13 -0.32 13 -1 13 C-0.98839844 13.62648438 -0.97679687 14.25296875 -0.96484375 14.8984375 C-0.95582031 15.71570313 -0.94679688 16.53296875 -0.9375 17.375 C-0.92589844 18.18710937 -0.91429687 18.99921875 -0.90234375 19.8359375 C-1 22 -1 22 -2 24 C-2.66 24 -3.32 24 -4 24 C-4 21.36 -4 18.72 -4 16 C-3.34 16 -2.68 16 -2 16 C-1.93941406 15.26394531 -1.87882813 14.52789062 -1.81640625 13.76953125 C-1.69072266 12.30580078 -1.69072266 12.30580078 -1.5625 10.8125 C-1.48128906 9.84957031 -1.40007813 8.88664062 -1.31640625 7.89453125 C-1.02333849 5.21350398 -0.57296246 2.6337014 0 0 Z " fill="#C02122" transform="translate(682,336)"/>
<path d="M0 0 C-1.49097658 3.7952131 -3.75700849 5.61042731 -7 8 C-7 7.34 -7 6.68 -7 6 C-7.556875 6.61875 -8.11375 7.2375 -8.6875 7.875 C-11.10797254 10.09921801 -12.92991656 10.9254708 -16 12 C-17.34050052 12.65213539 -18.67661368 13.31379969 -20 14 C-17.20005533 10.15421312 -14.49848089 7.77118911 -10.4375 5.3125 C-9.01244141 4.44044922 -9.01244141 4.44044922 -7.55859375 3.55078125 C-6.71425781 3.03902344 -5.86992188 2.52726562 -5 2 C-2 0 -2 0 0 0 Z " fill="#F4BCBB" transform="translate(870,503)"/>
<path d="M0 0 C0.33 0 0.66 0 1 0 C1.25048924 7.26418787 1.25048924 7.26418787 0 10.9375 C-1.15524733 14.47544495 -1.11681777 17.3613543 -0.97265625 21.046875 C-1 23 -1 23 -2 25 C-2.99 25 -3.98 25 -5 25 C-4.32418477 18.91766294 -3.26361972 12.98685848 -2 7 C-1.34 7 -0.68 7 0 7 C0 4.69 0 2.38 0 0 Z " fill="#F7CBC7" transform="translate(639,385)"/>
<path d="M0 0 C0.66 0 1.32 0 2 0 C1.50203239 4.48170849 0.89990797 8.93219433 0.125 13.375 C-0.01679687 14.20773437 -0.15859375 15.04046875 -0.3046875 15.8984375 C-1 18 -1 18 -4 20 C-2.28571429 2.28571429 -2.28571429 2.28571429 0 0 Z " fill="#C63A3B" transform="translate(767,376)"/>
<path d="M0 0 C0.99 0 1.98 0 3 0 C2.25577054 6.18505263 1.37295916 12.34118753 0.4375 18.5 C0.29892578 19.4178125 0.16035156 20.335625 0.01757812 21.28125 C-0.32071312 23.52097131 -0.6599234 25.7605492 -1 28 C-1.33 28 -1.66 28 -2 28 C-1.34 18.76 -0.68 9.52 0 0 Z " fill="#BA1417" transform="translate(789,88)"/>
<path d="M0 0 C0.66 0.33 1.32 0.66 2 1 C1.26418258 2.1549921 0.51069961 3.29874185 -0.25 4.4375 C-0.66765625 5.07558594 -1.0853125 5.71367187 -1.515625 6.37109375 C-3.33438032 8.3669384 -4.31688749 8.80330566 -7 9 C-9.25 8.0625 -9.25 8.0625 -11 7 C-9.73299277 6.0158875 -8.4612381 5.03788503 -7.1875 4.0625 C-6.47980469 3.51722656 -5.77210938 2.97195313 -5.04296875 2.41015625 C-3 1 -3 1 0 0 Z " fill="#F3C8C7" transform="translate(881,495)"/>
<path d="M0 0 C1.0625 1.875 1.0625 1.875 2 4 C1.67 4.66 1.34 5.32 1 6 C0.81857057 7.87189095 0.67892497 9.74794444 0.5625 11.625 C0.18731215 16.64767606 -0.60618838 21.16811973 -2 26 C-2.66 26 -3.32 26 -4 26 C-2.98074847 17.26046032 -1.94183957 8.59367299 0 0 Z " fill="#BF2524" transform="translate(691,288)"/>
<path d="M0 0 C1.32 0.33 2.64 0.66 4 1 C3.20335937 1.45890625 2.40671875 1.9178125 1.5859375 2.390625 C-3.71118249 5.45805701 -8.97089671 8.50756716 -14 12 C-14.33 10.68 -14.66 9.36 -15 8 C-7.57142857 4.71428571 -7.57142857 4.71428571 -4 4 C-4 3.34 -4 2.68 -4 2 C-2.68 2 -1.36 2 0 2 C0 1.34 0 0.68 0 0 Z " fill="#B91010" transform="translate(880,493)"/>
<path d="M0 0 C0.33 0 0.66 0 1 0 C1.22281933 5.57048313 0.77021489 9.68935532 -1 15 C-1.46752353 18.99193164 -1.75336226 22.98889143 -2 27 C-2.66 27 -3.32 27 -4 27 C-4.35517694 17.76539951 -2.79774958 8.79292724 0 0 Z " fill="#C74142" transform="translate(799,445)"/>
<path d="M0 0 C0.99 0 1.98 0 3 0 C4.60355101 3.50776784 5.22036864 6.14354879 5 10 C5.66 10 6.32 10 7 10 C8.32 12.97 9.64 15.94 11 19 C10.34 19.33 9.68 19.66 9 20 C8.67 18.68 8.34 17.36 8 16 C7.34 16 6.68 16 6 16 C5.18667257 13.89615302 4.37436583 11.79191143 3.5625 9.6875 C3.11003906 8.51574219 2.65757812 7.34398437 2.19140625 6.13671875 C1.42015245 4.10617185 0.68687358 2.06062074 0 0 Z " fill="#BE2828" transform="translate(599,576)"/>
<path d="M0 0 C0.33 0 0.66 0 1 0 C1.23136637 5.5021816 0.4350346 10.13853778 -1 15.4375 C-1.19078125 16.16904297 -1.3815625 16.90058594 -1.578125 17.65429688 C-2.04450403 19.43819666 -2.52118278 21.21939845 -3 23 C-3.33 23 -3.66 23 -4 23 C-4.04241723 20.66705225 -4.04092937 18.33297433 -4 16 C-3.67 15.67 -3.34 15.34 -3 15 C-2.71461678 11.67052907 -2.55107367 8.34102372 -2.37890625 5.00390625 C-2 2 -2 2 0 0 Z " fill="#C73A3B" transform="translate(737,373)"/>
<path d="M0 0 C0.33 0 0.66 0 1 0 C1 3.96 1 7.92 1 12 C0.34 12 -0.32 12 -1 12 C-1 15.3 -1 18.6 -1 22 C-1.66 22 -2.32 22 -3 22 C-3.33 22.66 -3.66 23.32 -4 24 C-3.35588614 18.44686304 -2.49942196 12.98744364 -1.4375 7.5 C-1.22963867 6.40945312 -1.22963867 6.40945312 -1.01757812 5.296875 C-0.68063335 3.53081963 -0.34064317 1.76534574 0 0 Z " fill="#C02022" transform="translate(706,212)"/>
<path d="M0 0 C0.66 0 1.32 0 2 0 C2 0.66 2 1.32 2 2 C2.99 1.67 3.98 1.34 5 1 C4.67 2.32 4.34 3.64 4 5 C4.99 4.67 5.98 4.34 7 4 C7.4125 4.763125 7.825 5.52625 8.25 6.3125 C9.96956671 8.95326316 11.49195869 10.18383216 14 12 C14 12.66 14 13.32 14 14 C9.52159574 12.6315987 7.74750227 10.72242243 5 7 C4.278125 6.29875 3.55625 5.5975 2.8125 4.875 C1 3 1 3 0 0 Z " fill="#F9CECC" transform="translate(624,506)"/>
<path d="M0 0 C1.65 0 3.3 0 5 0 C5.33 1.32 5.66 2.64 6 4 C6.99 4 7.98 4 9 4 C9.33 5.65 9.66 7.3 10 9 C10.99 9.33 11.98 9.66 13 10 C12.34 10.66 11.68 11.32 11 12 C9.16364422 10.19047409 7.33083792 8.37759362 5.5 6.5625 C4.97535156 6.04623047 4.45070313 5.52996094 3.91015625 4.99804688 C2.58775448 3.68423213 1.29164432 2.34406495 0 1 C0 0.67 0 0.34 0 0 Z " fill="#BE2426" transform="translate(540,473)"/>
<path d="M0 0 C4.44006916 3.61783413 6.98488028 8.71836201 9 14 C8.67 14.66 8.34 15.32 8 16 C7.67 14.68 7.34 13.36 7 12 C6.34 12 5.68 12 5 12 C4.67 12.66 4.34 13.32 4 14 C4 13.34 4 12.68 4 12 C3.34 12 2.68 12 2 12 C2 9.69 2 7.38 2 5 C1.34 4.67 0.68 4.34 0 4 C0 2.68 0 1.36 0 0 Z " fill="#F5C4C3" transform="translate(615,610)"/>
<path d="M0 0 C0.33 0 0.66 0 1 0 C1.05406122 1.93719378 1.09282025 3.87481921 1.125 5.8125 C1.14820313 6.89144531 1.17140625 7.97039062 1.1953125 9.08203125 C1 12 1 12 -1 15 C-1.66613335 17.27538323 -1.66613335 17.27538323 -2.125 19.6875 C-2.29257812 20.49574219 -2.46015625 21.30398438 -2.6328125 22.13671875 C-2.75398437 22.75160156 -2.87515625 23.36648438 -3 24 C-4.30102931 19.67941758 -3.72449924 16.41944536 -3 12 C-2.67 11.67 -2.34 11.34 -2 11 C-1.60545777 9.15400312 -1.25823134 7.29774178 -0.9375 5.4375 C-0.76089844 4.42558594 -0.58429687 3.41367187 -0.40234375 2.37109375 C-0.20318359 1.19740234 -0.20318359 1.19740234 0 0 Z " fill="#FAD0D2" transform="translate(732,404)"/>
<path d="M0 0 C0.33 0 0.66 0 1 0 C1.22134176 2.12368444 1.42670007 4.24904024 1.625 6.375 C1.74101563 7.55835938 1.85703125 8.74171875 1.9765625 9.9609375 C1.98429688 10.96382813 1.99203125 11.96671875 2 13 C1.34 13.66 0.68 14.32 0 15 C-0.64767793 17.57061311 -0.64767793 17.57061311 -1 20 C-1.66 20 -2.32 20 -3 20 C-2.69055299 17.41626766 -2.37756043 14.83304867 -2.0625 12.25 C-1.97548828 11.52039063 -1.88847656 10.79078125 -1.79882812 10.0390625 C-1.37972591 6.62415558 -0.882726 3.32396457 0 0 Z " fill="#F7C5C6" transform="translate(747,324)"/>
<path d="M0 0 C0.66 0 1.32 0 2 0 C1.53752467 7.19270839 0.74922933 14.0030827 -1 21 C-1.33 21 -1.66 21 -2 21 C-1.85924795 18.06217531 -1.7126162 15.12484829 -1.5625 12.1875 C-1.52318359 11.35412109 -1.48386719 10.52074219 -1.44335938 9.66210938 C-1.40146484 8.85966797 -1.35957031 8.05722656 -1.31640625 7.23046875 C-1.27974854 6.49207764 -1.24309082 5.75368652 -1.20532227 4.99291992 C-1 3 -1 3 0 0 Z " fill="#BF2C2C" transform="translate(760,248)"/>
<path d="M0 0 C1 3 1 3 -0.08984375 5.5390625 C-2.38204315 8.49220283 -4.04515816 9.2041139 -7.5625 10.375 C-9.01849609 10.88160156 -9.01849609 10.88160156 -10.50390625 11.3984375 C-13 12 -13 12 -15 11 C-14.40832031 10.69707031 -13.81664062 10.39414062 -13.20703125 10.08203125 C-8.3728242 7.51903404 -4.6367431 5.09133599 -1 1 C-0.67 0.67 -0.34 0.34 0 0 Z " fill="#F5C4C2" transform="translate(465,496)"/>
<path d="M0 0 C0.33 0 0.66 0 1 0 C0.67 2.64 0.34 5.28 0 8 C0.66 8 1.32 8 2 8 C2 8.99 2 9.98 2 11 C1.01 11.66 0.02 12.32 -1 13 C-1.25030977 15.58380177 -1.25030977 15.58380177 -1 18 C-1.99 18.33 -2.98 18.66 -4 19 C-3.37968409 12.42465139 -1.85102717 6.33307408 0 0 Z " fill="#F7DAD9" transform="translate(644,365)"/>
<path d="M0 0 C-2.58090767 1.31746333 -5.16450458 2.62909617 -7.75 3.9375 C-8.47960937 4.31068359 -9.20921875 4.68386719 -9.9609375 5.06835938 C-10.66992188 5.42607422 -11.37890625 5.78378906 -12.109375 6.15234375 C-12.75874023 6.48226318 -13.40810547 6.81218262 -14.07714844 7.15209961 C-16.03293079 8.01452116 -17.91540694 8.54374179 -20 9 C-20.33 8.34 -20.66 7.68 -21 7 C-18.58020341 5.99175142 -16.32899792 5.06397182 -13.75 4.5625 C-13.1725 4.376875 -12.595 4.19125 -12 4 C-11.67 3.01 -11.34 2.02 -11 1 C-9.8553125 0.7834375 -9.8553125 0.7834375 -8.6875 0.5625 C-2.31428571 -0.77142857 -2.31428571 -0.77142857 0 0 Z " fill="#B6191A" transform="translate(912,480)"/>
<path d="M0 0 C0 4.62 0 9.24 0 14 C-2.05123248 11.94876752 -2.64147118 10.72994937 -3.625 8.0625 C-4.01558594 7.02802734 -4.01558594 7.02802734 -4.4140625 5.97265625 C-5 4 -5 4 -5 1 C-1.125 0 -1.125 0 0 0 Z " fill="#C31C1D" transform="translate(374,420)"/>
<path d="M0 0 C0.66 0.33 1.32 0.66 2 1 C2.45510807 7.67491831 0.7672426 13.59374557 -1 20 C-1.99 19.67 -2.98 19.34 -4 19 C-3.34 19 -2.68 19 -2 19 C-1.34 12.73 -0.68 6.46 0 0 Z " fill="#FBD3CD" transform="translate(828,304)"/>
<path d="M0 0 C0.95390066 3.03083331 0.99316248 4.9396418 0.1875 8 C-1.19091391 13.61680227 -2.09199307 19.29114792 -3 25 C-3.33 25 -3.66 25 -4 25 C-4.31525564 17.2412085 -3.78397674 9.57639506 -2 2 C-1.34 1.34 -0.68 0.68 0 0 Z " fill="#B92726" transform="translate(618,261)"/>
<path d="M0 0 C0.66 0 1.32 0 2 0 C2 0.66 2 1.32 2 2 C2.99 2.33 3.98 2.66 5 3 C5 3.66 5 4.32 5 5 C5.99 5.33 6.98 5.66 8 6 C11.34073619 8.75119451 12.52153935 10.69385411 13 15 C7.79261817 10.93269584 3.61710447 6.55152664 0 1 C0 0.67 0 0.34 0 0 Z " fill="#BB2B2C" transform="translate(645,653)"/>
<path d="M0 0 C3.63559661 3.43361902 6.36113346 6.7973607 9 11 C8.67 11.66 8.34 12.32 8 13 C6.65009646 12.02248365 5.31963709 11.01800576 4 10 C3.443125 9.5875 2.88625 9.175 2.3125 8.75 C0.29874935 6.06499913 0.30876638 3.27292362 0 0 Z " fill="#F7D1CC" transform="translate(551,485)"/>
<path d="M0 0 C1.61949011 2.57213134 2.04408751 3.67669159 1.625 6.75 C1.41875 7.4925 1.2125 8.235 1 9 C0.34 9 -0.32 9 -1 9 C-0.773125 9.928125 -0.54625 10.85625 -0.3125 11.8125 C-0.209375 12.864375 -0.10625 13.91625 0 15 C-1.48046875 16.69921875 -1.48046875 16.69921875 -3 18 C-2.51679152 11.7945858 -1.66681876 6.00054754 0 0 Z " fill="#F9CDCA" transform="translate(630,424)"/>
<path d="M0 0 C1.51553092 3.97450493 0.49888623 7.20481149 -0.4375 11.25 C-0.72496094 12.51328125 -1.01242187 13.7765625 -1.30859375 15.078125 C-1.53675781 16.04234375 -1.76492188 17.0065625 -2 18 C-4 16 -4 16 -4.375 13.5 C-3.85062282 8.60581303 -1.98066788 4.47418726 0 0 Z " fill="#BE272A" transform="translate(633,406)"/>
<path d="M0 0 C0.33 0 0.66 0 1 0 C1.06809535 2.92810006 1.09817457 5.57457686 0.4375 8.4375 C-0.1693314 11.174537 -0.1693314 11.174537 0.5625 14.625 C1 18 1 18 -1 21 C-2.15795477 17.52613568 -2.16829849 14.72230696 -2.1875 11.0625 C-2.20167969 9.83660156 -2.21585938 8.61070312 -2.23046875 7.34765625 C-2.01676797 4.24356188 -1.63998182 2.58637449 0 0 Z " fill="#C23535" transform="translate(757,416)"/>
<path d="M0 0 C0.66 0 1.32 0 2 0 C1.69127671 2.60466543 1.37818277 5.20867691 1.0625 7.8125 C0.97548828 8.55048828 0.88847656 9.28847656 0.79882812 10.04882812 C0.41783454 13.16733121 -0.00369374 16.01108122 -1 19 C-1.66 19 -2.32 19 -3 19 C-2.69277348 16.02020106 -2.37948528 13.04126241 -2.0625 10.0625 C-1.97548828 9.21236328 -1.88847656 8.36222656 -1.79882812 7.48632812 C-1.71181641 6.67744141 -1.62480469 5.86855469 -1.53515625 5.03515625 C-1.456604 4.2862915 -1.37805176 3.53742676 -1.29711914 2.76586914 C-1 1 -1 1 0 0 Z " fill="#F7C8C6" transform="translate(663,424)"/>
<path d="M0 0 C1.31052767 4.30422506 0.45785552 7.9370534 -0.4375 12.25 C-0.58509766 12.99507812 -0.73269531 13.74015625 -0.88476562 14.5078125 C-1.2488694 16.34007665 -1.62341409 18.17026053 -2 20 C-2.33 20 -2.66 20 -3 20 C-3 16.7 -3 13.4 -3 10 C-3.66 9.67 -4.32 9.34 -5 9 C-4.54625 8.62875 -4.0925 8.2575 -3.625 7.875 C-1.52970606 5.45735315 -0.87986715 3.04569398 0 0 Z " fill="#F8C8C6" transform="translate(709,192)"/>
<path d="M0 0 C0.33 0 0.66 0 1 0 C0.37679879 6.43974581 -0.64008262 12.67572401 -2 19 C-2.33 19 -2.66 19 -3 19 C-3.35368021 11.87399867 -2.95671348 6.52940894 0 0 Z " fill="#B9211F" transform="translate(782,607)"/>
<path d="M0 0 C1.32 0.33 2.64 0.66 4 1 C2.02 4.63 0.04 8.26 -2 12 C-2.66 10.68 -3.32 9.36 -4 8 C-3.67 8 -3.34 8 -3 8 C-2.690625 6.865625 -2.38125 5.73125 -2.0625 4.5625 C-1 1 -1 1 0 0 Z " fill="#C01218" transform="translate(797,568)"/>
<path d="M0 0 C1.32 0.33 2.64 0.66 4 1 C2.66666667 5 1.33333333 9 0 13 C-0.66 13 -1.32 13 -2 13 C-1.34 8.71 -0.68 4.42 0 0 Z " fill="#FBE5E3" transform="translate(633,410)"/>
<path d="M0 0 C4.875 4.625 4.875 4.625 6 8 C7.31647119 8.69937532 8.65022151 9.36729133 10 10 C10.33 10.66 10.66 11.32 11 12 C8.1742798 11.91689058 6.45455618 11.40452306 4.33203125 9.515625 C0 4.69997031 0 4.69997031 0 0 Z " fill="#C03031" transform="translate(970,296)"/>
<path d="M0 0 C0.33 0 0.66 0 1 0 C1.09765625 6.15234375 1.09765625 6.15234375 1 8 C0.67 8.33 0.34 8.66 0 9 C-0.24349011 11.51606449 -0.38363366 14.03086024 -0.5234375 16.5546875 C-1.06506728 19.33386981 -1.83216942 20.24950579 -4 22 C-3.25403037 14.5403037 -1.63253871 7.31048782 0 0 Z " fill="#F6BBBC" transform="translate(614,286)"/>
<path d="M0 0 C0.33 0 0.66 0 1 0 C1.02690844 2.62506802 1.04679404 5.24986173 1.0625 7.875 C1.07087891 8.62136719 1.07925781 9.36773437 1.08789062 10.13671875 C1.11328125 15.7734375 1.11328125 15.7734375 0 18 C-0.66 18 -1.32 18 -2 18 C-2.33 18.66 -2.66 19.32 -3 20 C-2.45136137 13.2142064 -1.45732062 6.64990964 0 0 Z " fill="#F7C1BE" transform="translate(765,232)"/>
<path d="M0 0 C0.33 0 0.66 0 1 0 C0.37727768 7.4071181 -0.70487966 14.68194135 -2 22 C-2.33 22 -2.66 22 -3 22 C-3.31979695 4.97969543 -3.31979695 4.97969543 0 0 Z " fill="#C33234" transform="translate(680,182)"/>
<path d="M0 0 C3 0 3 0 6 1 C2.7 3.64 -0.6 6.28 -4 9 C-4.33 7.68 -4.66 6.36 -5 5 C-3.68 5 -2.36 5 -1 5 C-1.33 4.01 -1.66 3.02 -2 2 C-1.34 1.34 -0.68 0.68 0 0 Z " fill="#C11A1C" transform="translate(839,520)"/>
<path d="M0 0 C1.31052767 4.30422506 0.45785552 7.9370534 -0.4375 12.25 C-0.58509766 12.99507813 -0.73269531 13.74015625 -0.88476562 14.5078125 C-1.2488694 16.34007665 -1.62341409 18.17026053 -2 20 C-2.33 20 -2.66 20 -3 20 C-3 16.04 -3 12.08 -3 8 C-3.66 7.67 -4.32 7.34 -5 7 C-4.67 6.01 -4.34 5.02 -4 4 C-3.01 3.67 -2.02 3.34 -1 3 C-0.67 2.01 -0.34 1.02 0 0 Z " fill="#C12829" transform="translate(728,420)"/>
<path d="M0 0 C0.33 0 0.66 0 1 0 C0.91935365 3.2926882 0.80649721 6.58349221 0.6875 9.875 C0.66494141 10.81214844 0.64238281 11.74929688 0.61914062 12.71484375 C0.58369141 13.61074219 0.54824219 14.50664062 0.51171875 15.4296875 C0.48553467 16.25710449 0.45935059 17.08452148 0.43237305 17.93701172 C0 20 0 20 -3 22 C-2.68905914 19.45813394 -2.37629464 16.91651402 -2.0625 14.375 C-1.97548828 13.66214844 -1.88847656 12.94929688 -1.79882812 12.21484375 C-1.29217395 8.12408039 -0.7110957 4.06157365 0 0 Z " fill="#C73837" transform="translate(673,378)"/>
<path d="M0 0 C0.33 0 0.66 0 1 0 C0.36934845 5.7809725 -0.65155132 11.3443706 -2 17 C-2.33 17 -2.66 17 -3 17 C-3.08160748 15.10489301 -3.13946459 13.20875496 -3.1875 11.3125 C-3.22230469 10.25675781 -3.25710938 9.20101563 -3.29296875 8.11328125 C-2.96555119 4.63392401 -2.05643142 2.7919812 0 0 Z " fill="#FCDAD8" transform="translate(774,341)"/>
<path d="M0 0 C0.33 0 0.66 0 1 0 C1.02712153 1.916588 1.04645097 3.8332873 1.0625 5.75 C1.07410156 6.81734375 1.08570313 7.8846875 1.09765625 8.984375 C1.01510087 11.53368501 0.74617558 13.57933591 0 16 C-0.66 16 -1.32 16 -2 16 C-2.20674944 10.21101581 -1.59162079 5.57067277 0 0 Z " fill="#C73236" transform="translate(840,256)"/>
<path d="M0 0 C0.33 0 0.66 0 1 0 C1.23529355 5.76469193 0.84517785 10.46446645 -1 16 C-1.38111791 17.31073658 -1.75626579 18.62322593 -2.125 19.9375 C-2.41375 20.948125 -2.7025 21.95875 -3 23 C-4.01498547 19.82540369 -3.94466465 17.69122329 -3.22265625 14.453125 C-3.03896484 13.60878906 -2.85527344 12.76445312 -2.66601562 11.89453125 C-2.46685547 11.02183594 -2.26769531 10.14914063 -2.0625 9.25 C-1.86720703 8.36183594 -1.67191406 7.47367188 -1.47070312 6.55859375 C-0.98838288 4.37050678 -0.49790968 2.1845827 0 0 Z " fill="#F6B5B4" transform="translate(773,192)"/>
<path d="M0 0 C0.33 0 0.66 0 1 0 C1.05451714 2.04136395 1.09302485 4.08315856 1.125 6.125 C1.14820313 7.26195313 1.17140625 8.39890625 1.1953125 9.5703125 C0.99672109 13.05757767 0.2524801 15.7553862 -1 19 C-1.33 19 -1.66 19 -2 19 C-1.85913398 16.39547729 -1.71251536 13.79149803 -1.5625 11.1875 C-1.50352539 10.08051758 -1.50352539 10.08051758 -1.44335938 8.95117188 C-1.25618965 5.76928658 -1.01279207 3.03837622 0 0 Z " fill="#EFA7A6" transform="translate(791,93)"/>
<path d="M0 0 C0.33 0 0.66 0 1 0 C1.02701408 2.10409639 1.04640223 4.20829178 1.0625 6.3125 C1.07410156 7.48425781 1.08570313 8.65601562 1.09765625 9.86328125 C1 13 1 13 0 16 C-0.66 16 -1.32 16 -2 16 C-2.20674944 10.21101581 -1.59162079 5.57067277 0 0 Z " fill="#C53437" transform="translate(730,80)"/>
<path d="M0 0 C5.96351455 1.27789598 8.48417174 4.33716394 12 9 C8.46048734 9 7.63535306 8.28068285 4.875 6.1875 C4.17117188 5.66542969 3.46734375 5.14335938 2.7421875 4.60546875 C1 3 1 3 0 0 Z " fill="#C43336" transform="translate(663,672)"/>
<path d="M0 0 C2 1 2 1 2.875 3.1875 C3.04992011 7.12320244 1.3416585 8.94874801 -1 12 C-2.04184255 8.61401171 -2.23042499 5.53318313 -2 2 C-1.34 1.34 -0.68 0.68 0 0 Z " fill="#C20B0C" transform="translate(803,556)"/>
<path d="M0 0 C-3.625 3 -3.625 3 -7 3 C-7.66 4.32 -8.32 5.64 -9 7 C-10.65 6.67 -12.3 6.34 -14 6 C-11.72698066 3.45655714 -9.54913519 2.12383563 -6.4375 0.75 C-5.65246094 0.39421875 -4.86742187 0.0384375 -4.05859375 -0.328125 C-2 -1 -2 -1 0 0 Z " fill="#F6C2C1" transform="translate(912,481)"/>
<path d="M0 0 C0.66 0 1.32 0 2 0 C4.32019297 3.19026533 6.34643078 6.41726669 8 10 C6.68 10 5.36 10 4 10 C4 9.01 4 8.02 4 7 C2.68 6.67 1.36 6.34 0 6 C0 4.02 0 2.04 0 0 Z " fill="#F8D3D1" transform="translate(289,330)"/>
<path d="M0 0 C1.98 0.99 1.98 0.99 4 2 C4 5.63 4 9.26 4 13 C2 12 2 12 0.875 8.75 C0.14536518 5.62299365 -0.19234975 3.17377095 0 0 Z " fill="#C11B1D" transform="translate(281,307)"/>
<path d="M0 0 C2.96659857 3.55991828 5.381348 7.65222543 7 12 C6.67 12.66 6.34 13.32 6 14 C5.34 13.67 4.68 13.34 4 13 C4 12.01 4 11.02 4 10 C3.01 9.67 2.02 9.34 1 9 C1.33 8.01 1.66 7.02 2 6 C1.34 6 0.68 6 0 6 C0 4.02 0 2.04 0 0 Z " fill="#F9CDCA" transform="translate(608,596)"/>
<path d="M0 0 C0.66 0 1.32 0 2 0 C2 0.66 2 1.32 2 2 C2.969375 2.2475 3.93875 2.495 4.9375 2.75 C8 4 8 4 9 6 C9 6.66 9 7.32 9 8 C8.34 8.66 7.68 9.32 7 10 C5.83043409 8.52312468 4.66441854 7.04343707 3.5 5.5625 C2.8503125 4.73878906 2.200625 3.91507812 1.53125 3.06640625 C0 1 0 1 0 0 Z " fill="#BE1116" transform="translate(399,485)"/>
<path d="M0 0 C1.9375 0.8125 1.9375 0.8125 4 2 C4.33 2.99 4.66 3.98 5 5 C5.99 5.33 6.98 5.66 8 6 C9.6875 7.5625 9.6875 7.5625 11 9 C10.67 9.99 10.34 10.98 10 12 C6.15216516 8.93922229 2.85267377 6.05957421 0 2 C0 1.34 0 0.68 0 0 Z " fill="#B71D1F" transform="translate(300,342)"/>
<path d="M0 0 C0.33 0 0.66 0 1 0 C1.43230491 7.34918342 -0.18225815 13.90215087 -2 21 C-2.33 21 -2.66 21 -3 21 C-2.88513575 18.62412376 -2.75841844 16.24984829 -2.625 13.875 C-2.5940625 13.20984375 -2.563125 12.5446875 -2.53125 11.859375 C-2.28080367 7.60178738 -1.52471803 3.97914217 0 0 Z " fill="#C43B3B" transform="translate(675,208)"/>
<path d="M0 0 C0.33 0 0.66 0 1 0 C0.22095672 12.66970387 0.22095672 12.66970387 -2 18 C-4 15 -4 15 -3.3203125 11.42578125 C-2.93508498 10.05091752 -2.53609893 8.67985079 -2.125 7.3125 C-1.92519531 6.61060547 -1.72539063 5.90871094 -1.51953125 5.18554688 C-1.02470374 3.45365057 -0.51386825 1.72634252 0 0 Z " fill="#BD1A19" transform="translate(769,206)"/>
<path d="M0 0 C0.33 0 0.66 0 1 0 C1.33 2.64 1.66 5.28 2 8 C1.01 8 0.02 8 -1 8 C-1.33 9.98 -1.66 11.96 -2 14 C-2.66 14 -3.32 14 -4 14 C-3.36843005 8.94744036 -1.86540627 4.70406799 0 0 Z " fill="#F6C5C4" transform="translate(788,592)"/>
<path d="M0 0 C3.11223313 4.14964417 3.52003578 6.00837213 4 11 C2.68 11.33 1.36 11.66 0 12 C-0.33 11.34 -0.66 10.68 -1 10 C-0.34 10 0.32 10 1 10 C0.67 6.7 0.34 3.4 0 0 Z " fill="#BB2B2E" transform="translate(790,690)"/>
<path d="M0 0 C0.33 0 0.66 0 1 0 C1.0272415 1.41655793 1.04650467 2.83327045 1.0625 4.25 C1.07410156 5.03890625 1.08570313 5.8278125 1.09765625 6.640625 C1.00385306 8.90691002 0.63241063 10.8288895 0 13 C-0.66 13 -1.32 13 -2 13 C-2.33 14.65 -2.66 16.3 -3 18 C-4.13591405 14.66041268 -3.86125931 12.83461753 -2.625 9.5625 C-1.47597742 6.38301286 -0.5403386 3.35009931 0 0 Z " fill="#BF2E31" transform="translate(762,397)"/>
<path d="M0 0 C0.82638376 2.89234315 1 4.88742431 1 8 C-0.875 10.25 -0.875 10.25 -3 12 C-3.66 12 -4.32 12 -5 12 C-3.85814266 7.52040582 -2.56984833 3.85477249 0 0 Z " fill="#FAD6D2" transform="translate(796,576)"/>
<path d="M0 0 C0.66 0 1.32 0 2 0 C2.696553 1.95513161 3.38199565 3.91422476 4.0625 5.875 C4.44535156 6.96554687 4.82820313 8.05609375 5.22265625 9.1796875 C6 12 6 12 5 14 C2.70620251 10.55930376 2 9.27709699 2 5 C1.01 4.67 0.02 4.34 -1 4 C-0.67 2.68 -0.34 1.36 0 0 Z " fill="#F7C9C6" transform="translate(276,300)"/>
<path d="M0 0 C0.33 0 0.66 0 1 0 C0.88512252 1.58409994 0.75765492 3.16728963 0.625 4.75 C0.52058594 6.07257813 0.52058594 6.07257813 0.4140625 7.421875 C0.00149945 9.99066382 -0.71160957 11.75841015 -2 14 C-2.05389087 12.04196493 -2.09274217 10.08351091 -2.125 8.125 C-2.14820313 7.03445312 -2.17140625 5.94390625 -2.1953125 4.8203125 C-2 2 -2 2 0 0 Z " fill="#C02F30" transform="translate(621,246)"/>
<path d="M0 0 C2.0625 1.6875 2.0625 1.6875 4 4 C3.75 6.75 3.75 6.75 3 9 C0.9375 7.3125 0.9375 7.3125 -1 5 C-0.75 2.25 -0.75 2.25 0 0 Z " fill="#C60D12" transform="translate(553,481)"/>
<path d="M0 0 C4.60895683 1.31684481 8.14140235 3.15198745 12 6 C12 6.33 12 6.66 12 7 C9.6875 7.1875 9.6875 7.1875 7 7 C5.4375 5.625 5.4375 5.625 4 4 C1.90010348 2.82425289 1.90010348 2.82425289 0 2 C0 1.34 0 0.68 0 0 Z " fill="#FDD7D6" transform="translate(528,467)"/>
<path d="M0 0 C-10.25 5.125 -10.25 5.125 -16 4 C-13.21769572 2.14513048 -11.15636393 1.27537888 -8 0.3125 C-6.700625 -0.09548828 -6.700625 -0.09548828 -5.375 -0.51171875 C-3 -1 -3 -1 0 0 Z " fill="#F7BABA" transform="translate(984,454)"/>
<path d="M0 0 C0.33 0 0.66 0 1 0 C1.08078641 2.12438339 1.13909141 4.2496323 1.1875 6.375 C1.22230469 7.55835938 1.25710938 8.74171875 1.29296875 9.9609375 C1.19628906 10.96382813 1.09960938 11.96671875 1 13 C0.01 13.66 -0.98 14.32 -2 15 C-1.34 10.05 -0.68 5.1 0 0 Z " fill="#FACCC9" transform="translate(727,428)"/>
<path d="M0 0 C0.33 0 0.66 0 1 0 C1 5.28 1 10.56 1 16 C0.01 15.67 -0.98 15.34 -2 15 C-1.85816304 13.24967156 -1.71136571 11.49974466 -1.5625 9.75 C-1.48128906 8.77546875 -1.40007813 7.8009375 -1.31640625 6.796875 C-1.04925416 4.43538247 -0.64628032 2.28098935 0 0 Z " fill="#F4B6B5" transform="translate(740,360)"/>
<path d="M0 0 C0.66 0 1.32 0 2 0 C2 0.66 2 1.32 2 2 C2.99 1.67 3.98 1.34 5 1 C7 3 7 3 7.125 6.125 C7.08375 7.07375 7.0425 8.0225 7 9 C5.62437146 7.71034824 4.29233607 6.37310707 3 5 C3 4.34 3 3.68 3 3 C2.34 3 1.68 3 1 3 C0.67 2.01 0.34 1.02 0 0 Z " fill="#C21F23" transform="translate(288,327)"/>
<path d="M0 0 C0.93826619 3.06687009 1.01788333 5.45007796 0.625 8.625 C0.53476562 9.40101563 0.44453125 10.17703125 0.3515625 10.9765625 C0 13 0 13 -1 15 C-1.66 15 -2.32 15 -3 15 C-2.44854729 9.76119922 -1.57077907 5.02649303 0 0 Z " fill="#B81413" transform="translate(695,273)"/>
<path d="M0 0 C0.66 0 1.32 0 2 0 C0.125 5.75 0.125 5.75 -1 8 C-3.5625 8.625 -3.5625 8.625 -6 9 C-4.16749123 5.8585564 -2.36301977 2.77397973 0 0 Z " fill="#F9C7C5" transform="translate(814,550)"/>
<path d="M0 0 C2.31 0 4.62 0 7 0 C5.35 1.65 3.7 3.3 2 5 C1.01 4.67 0.02 4.34 -1 4 C-0.67 2.68 -0.34 1.36 0 0 Z " fill="#C50F0F" transform="translate(481,473)"/>
<path d="M0 0 C-3.16240582 2.10827055 -4.50657469 2.33817465 -8.1875 2.625 C-9.53908203 2.73714844 -9.53908203 2.73714844 -10.91796875 2.8515625 C-11.94857422 2.92503906 -11.94857422 2.92503906 -13 3 C-9.19777044 -0.80222956 -5.07002404 -1.49118354 0 0 Z " fill="#FBE3E0" transform="translate(949,467)"/>
<path d="M0 0 C0.33 0 0.66 0 1 0 C0.88529863 1.75070517 0.75780972 3.50057536 0.625 5.25 C0.55539062 6.22453125 0.48578125 7.1990625 0.4140625 8.203125 C0.01534751 10.89633189 -0.63507063 12.66963279 -2 15 C-2.3690205 4.44191344 -2.3690205 4.44191344 0 0 Z " fill="#FEE1DE" transform="translate(725,106)"/>
<path d="M0 0 C3.67420866 0.30618405 4.78135513 0.75771784 7.3125 3.5625 C8.1478125 4.7690625 8.1478125 4.7690625 9 6 C4.58763974 6 3.21615077 3.9302707 0 1 C0 0.67 0 0.34 0 0 Z " fill="#C02C30" transform="translate(407,495)"/>
<path d="M0 0 C0.33 0 0.66 0 1 0 C1.33 2.31 1.66 4.62 2 7 C1.01 7.495 1.01 7.495 0 8 C-0.68472665 9.88764903 -0.68472665 9.88764903 -1.125 12.0625 C-1.29257812 12.79597656 -1.46015625 13.52945312 -1.6328125 14.28515625 C-1.75398437 14.85105469 -1.87515625 15.41695313 -2 16 C-3.3805087 12.23331402 -2.59568159 9.55210827 -1.5625 5.75 C-1.27503906 4.67234375 -0.98757813 3.5946875 -0.69140625 2.484375 C-0.46324219 1.66453125 -0.23507812 0.8446875 0 0 Z " fill="#F6BCB9" transform="translate(626,442)"/>
<path d="M0 0 C0.33 0 0.66 0 1 0 C0.88512252 1.58409994 0.75765492 3.16728963 0.625 4.75 C0.52058594 6.07257813 0.52058594 6.07257813 0.4140625 7.421875 C0.00149945 9.99066382 -0.71160957 11.75841015 -2 14 C-2.05410687 12.22950311 -2.09284119 10.45853151 -2.125 8.6875 C-2.14820313 7.70136719 -2.17140625 6.71523438 -2.1953125 5.69921875 C-2 3 -2 3 0 0 Z " fill="#F9C7C7" transform="translate(762,392)"/>
<path d="M0 0 C4.7037037 1.48538012 4.7037037 1.48538012 6.1875 4.0625 C6.455625 4.701875 6.72375 5.34125 7 6 C7.66 6.33 8.32 6.66 9 7 C5.0480185 7 3.85351584 5.62823828 1 3 C0.67 2.01 0.34 1.02 0 0 Z " fill="#C02F2F" transform="translate(311,354)"/>
<path d="M0 0 C1.32 0.66 2.64 1.32 4 2 C2.35 4.64 0.7 7.28 -1 10 C-2.10191901 5.59232396 -1.58706842 4.1077065 0 0 Z " fill="#C61B1D" transform="translate(843,245)"/>
<path d="M0 0 C0.99 0.495 0.99 0.495 2 1 C2 1.66 2 2.32 2 3 C2.598125 3.226875 3.19625 3.45375 3.8125 3.6875 C6.56351888 5.33811133 7.52484637 7.1972081 9 10 C6.5625 9.25 6.5625 9.25 4 8 C3.1875 5.875 3.1875 5.875 3 4 C2.34 4 1.68 4 1 4 C0.67 2.68 0.34 1.36 0 0 Z " fill="#BD2A2E" transform="translate(625,509)"/>
<path d="M0 0 C0.99 0.495 0.99 0.495 2 1 C2 1.99 2 2.98 2 4 C2.66 4 3.32 4 4 4 C5.625 6 5.625 6 7 8 C6.67 8.66 6.34 9.32 6 10 C3 8.375 3 8.375 0 6 C-0.375 2.75 -0.375 2.75 0 0 Z " fill="#F5C0BE" transform="translate(393,478)"/>
<path d="M0 0 C0.33 0.66 0.66 1.32 1 2 C1.66 2.33 2.32 2.66 3 3 C2.01 3.495 2.01 3.495 1 4 C1.33 5.65 1.66 7.3 2 9 C1.67 8.34 1.34 7.68 1 7 C0.34 7 -0.32 7 -1 7 C-1.66 5.02 -2.32 3.04 -3 1 C-2.01 0.67 -1.02 0.34 0 0 Z " fill="#BE191B" transform="translate(362,401)"/>
<path d="M0 0 C0.28571429 8.57142857 0.28571429 8.57142857 -2 12 C-2 9.36 -2 6.72 -2 4 C-2.66 4 -3.32 4 -4 4 C-3.67 3.01 -3.34 2.02 -3 1 C-1 0 -1 0 0 0 Z " fill="#BF2021" transform="translate(757,272)"/>
<path d="M0 0 C2.78030572 4.17045858 3.29986321 7.98663274 2.5625 12.9375 C2.376875 13.618125 2.19125 14.29875 2 15 C1.67 15 1.34 15 1 15 C-0.32286246 10.03926578 -0.08893197 5.08888488 0 0 Z " fill="#FEDFDD" transform="translate(954,246)"/>
<path d="M0 0 C3.51005335 1.6380249 6.45543849 3.03134491 9 6 C7.35 6.33 5.7 6.66 4 7 C3.896875 6.360625 3.79375 5.72125 3.6875 5.0625 C3.460625 4.381875 3.23375 3.70125 3 3 C2.01 2.67 1.02 2.34 0 2 C0 1.34 0 0.68 0 0 Z " fill="#FCDED9" transform="translate(679,686)"/>
<path d="M0 0 C0.66 0 1.32 0 2 0 C1.67 1.65 1.34 3.3 1 5 C0.01 5.33 -0.98 5.66 -2 6 C-2 6.66 -2 7.32 -2 8 C-2.66 8 -3.32 8 -4 8 C-2.87548273 5.0280615 -1.77706209 2.66559313 0 0 Z " fill="#F6C0BF" transform="translate(806,560)"/>
<path d="M0 0 C0.33 0.99 0.66 1.98 1 3 C1.66 3.33 2.32 3.66 3 4 C2.67 4.99 2.34 5.98 2 7 C2.99 7.33 3.98 7.66 5 8 C5 9.65 5 11.3 5 13 C1.44992282 9.0949151 0.18180084 6.02265357 -1 1 C-0.67 0.67 -0.34 0.34 0 0 Z " fill="#BB2022" transform="translate(588,549)"/>
<path d="M0 0 C0 3.99476331 -1.28869085 5.1421336 -4 8 C-6.75 9.3125 -6.75 9.3125 -9 10 C-8.06409496 8.8944811 -7.12620142 7.79064547 -6.1875 6.6875 C-5.66542969 6.07261719 -5.14335938 5.45773437 -4.60546875 4.82421875 C-3.12827531 3.14575321 -1.59960869 1.56117966 0 0 Z " fill="#F1ACAC" transform="translate(835,528)"/>
<path d="M0 0 C3 1 3 1 3 1 Z M-3 2 C-2.01 2.33 -1.02 2.66 0 3 C-0.66 4.32 -1.32 5.64 -2 7 C-3.32 7 -4.64 7 -6 7 C-4.125 3.125 -4.125 3.125 -3 2 Z " fill="#F9F9F6" transform="translate(839,527)"/>
<path d="M0 0 C1.6266848 0.28211877 3.25132896 0.57602375 4.875 0.875 C5.77992188 1.03742187 6.68484375 1.19984375 7.6171875 1.3671875 C10 2 10 2 12 4 C8.37 3.67 4.74 3.34 1 3 C0.67 2.01 0.34 1.02 0 0 Z " fill="#D1504E" transform="translate(642,523)"/>
<path d="M0 0 C2.64465038 3.1254959 3.84414715 6.08788267 5 10 C3.68 9.67 2.36 9.34 1 9 C0.67 6.03 0.34 3.06 0 0 Z " fill="#F5BDBC" transform="translate(388,468)"/>
<path d="M0 0 C2.64 0.33 5.28 0.66 8 1 C7.67 2.65 7.34 4.3 7 6 C5.83054208 5.19152271 4.66449539 4.37810888 3.5 3.5625 C2.8503125 3.11003906 2.200625 2.65757812 1.53125 2.19140625 C1.0259375 1.79824219 0.520625 1.40507812 0 1 C0 0.67 0 0.34 0 0 Z " fill="#C72D2E" transform="translate(336,378)"/>
<path d="M0 0 C0.33 0 0.66 0 1 0 C1.08090971 1.62418745 1.13914995 3.24951745 1.1875 4.875 C1.22230469 5.77992188 1.25710938 6.68484375 1.29296875 7.6171875 C1.19628906 8.40351563 1.09960938 9.18984375 1 10 C0.01 10.66 -0.98 11.32 -2 12 C-1.85831863 10.56208484 -1.71148957 9.1246763 -1.5625 7.6875 C-1.48128906 6.88699219 -1.40007813 6.08648437 -1.31640625 5.26171875 C-1 3 -1 3 0 0 Z " fill="#FBD0CB" transform="translate(647,352)"/>
<path d="M0 0 C0.33 0 0.66 0 1 0 C1.33 3.96 1.66 7.92 2 12 C1.01 12 0.02 12 -1 12 C-1.14285714 3.42857143 -1.14285714 3.42857143 0 0 Z " fill="#FCE0DD" transform="translate(677,204)"/>
<path d="M0 0 C0.33 0 0.66 0 1 0 C1.36463732 1.74784829 1.7163078 3.49840502 2.0625 5.25 C2.25972656 6.22453125 2.45695313 7.1990625 2.66015625 8.203125 C2.98397535 10.868119 2.85503199 12.48871723 2 15 C-0.35119399 11.47320901 -0.21443452 9.97120515 -0.125 5.8125 C-0.10695313 4.72582031 -0.08890625 3.63914062 -0.0703125 2.51953125 C-0.04710937 1.68808594 -0.02390625 0.85664062 0 0 Z " fill="#B81D1E" transform="translate(781,656)"/>
<path d="M0 0 C-2.8125 2.0625 -2.8125 2.0625 -6 4 C-6.99 3.67 -7.98 3.34 -9 3 C-7.01532024 -0.96935951 -3.9567243 -1.41311582 0 0 Z " fill="#FBD8D5" transform="translate(936,471)"/>
<path d="M0 0 C1.55373847 3.10747694 0.58528628 5.74226527 0.0625 9.125 C-0.22947266 11.04699219 -0.22947266 11.04699219 -0.52734375 13.0078125 C-0.68332031 13.99523437 -0.83929687 14.98265625 -1 16 C-1.33 16 -1.66 16 -2 16 C-2.33 12.7 -2.66 9.4 -3 6 C-2.34 6 -1.68 6 -1 6 C-1.0309375 4.7934375 -1.0309375 4.7934375 -1.0625 3.5625 C-1 1 -1 1 0 0 Z " fill="#FCCFD0" transform="translate(684,320)"/>
<path d="M0 0 C0.33 0 0.66 0 1 0 C1.08131463 1.43655854 1.13933559 2.8744483 1.1875 4.3125 C1.23970703 5.51326172 1.23970703 5.51326172 1.29296875 6.73828125 C0.93801608 9.47851584 0.10633718 10.29171079 -2 12 C-2 9.36 -2 6.72 -2 4 C-1.34 4 -0.68 4 0 4 C0 2.68 0 1.36 0 0 Z " fill="#C03433" transform="translate(835,284)"/>
<path d="M0 0 C1.26823485 3.65393537 0.75715321 6.49070026 0.0625 10.25 C-0.13214844 11.32765625 -0.32679688 12.4053125 -0.52734375 13.515625 C-0.68332031 14.33546875 -0.83929687 15.1553125 -1 16 C-1.33 16 -1.66 16 -2 16 C-2.05402274 13.89611431 -2.09280256 11.79183286 -2.125 9.6875 C-2.14820313 8.51574219 -2.17140625 7.34398437 -2.1953125 6.13671875 C-2 3 -2 3 0 0 Z " fill="#FBCFD1" transform="translate(714,164)"/>
<path d="M0 0 C0.99 0.495 0.99 0.495 2 1 C2 1.66 2 2.32 2 3 C3.32 3.66 4.64 4.32 6 5 C6 5.99 6 6.98 6 8 C4.68 7.67 3.36 7.34 2 7 C1.34 4.69 0.68 2.38 0 0 Z " fill="#FAE3E1" transform="translate(662,672)"/>
<path d="M0 0 C6.0546875 -0.1953125 6.0546875 -0.1953125 8 0 C8.66 0.66 9.32 1.32 10 2 C9 3 9 3 6.125 3.25 C3 3 3 3 1.125 1.5 C0.75375 1.005 0.3825 0.51 0 0 Z " fill="#F7D9D5" transform="translate(638,520)"/>
<path d="M0 0 C0.66 0.33 1.32 0.66 2 1 C0.8125 3.4375 0.8125 3.4375 -1 6 C-3.6875 6.8125 -3.6875 6.8125 -6 7 C-4.77065985 3.31197956 -3.06140622 2.27643027 0 0 Z M-8 7 C-7.01 7.495 -7.01 7.495 -6 8 C-6.99 8.495 -6.99 8.495 -8 9 C-8 8.34 -8 7.68 -8 7 Z " fill="#FCF7F2" transform="translate(855,513)"/>
<path d="M0 0 C2.475 0.495 2.475 0.495 5 1 C5 1.99 5 2.98 5 4 C4.01 4.495 4.01 4.495 3 5 C1 3 1 3 0 0 Z M0 4 C0.66 4.66 1.32 5.32 2 6 C1.34 6 0.68 6 0 6 C0 5.34 0 4.68 0 4 Z " fill="#FDEFED" transform="translate(537,474)"/>
<path d="M0 0 C-1.26839526 0.50615298 -2.53983102 1.00469099 -3.8125 1.5 C-4.87404297 1.91765625 -4.87404297 1.91765625 -5.95703125 2.34375 C-8 3 -8 3 -11 3 C-10.67 2.01 -10.34 1.02 -10 0 C-2.25 -1.125 -2.25 -1.125 0 0 Z " fill="#C94043" transform="translate(949,465)"/>
<path d="M0 0 C2.69504819 2.69504819 5 6.08360477 5 10 C4.34 10 3.68 10 3 10 C3 9.01 3 8.02 3 7 C2.01 7 1.02 7 0 7 C0 4.69 0 2.38 0 0 Z " fill="#FBD3CF" transform="translate(379,450)"/>
<path d="M0 0 C0.33 0 0.66 0 1 0 C2.19876651 5.44893869 1.91360308 8.22169095 -1 13 C-2.07310858 9.72814447 -1.89263102 7.57052408 -1.0625 4.25 C-0.86785156 3.45078125 -0.67320312 2.6515625 -0.47265625 1.828125 C-0.31667969 1.22484375 -0.16070313 0.6215625 0 0 Z " fill="#F6BEBC" transform="translate(652,330)"/>
<path d="M0 0 C0.33 0.99 0.66 1.98 1 3 C-1.475 4.485 -1.475 4.485 -4 6 C-4 5.01 -4 4.02 -4 3 C-4.66 2.67 -5.32 2.34 -6 2 C-3 1 -3 1 0 2 C0 1.34 0 0.68 0 0 Z " fill="#BE1413" transform="translate(463,496)"/>
<path d="M0 0 C0 3.20395416 -0.74335022 5.09399739 -2 8 C-3.32 7.67 -4.64 7.34 -6 7 C-4.02 4.69 -2.04 2.38 0 0 Z " fill="#F7C5C2" transform="translate(474,487)"/>
<path d="M0 0 C-1.375 1.5 -1.375 1.5 -3 3 C-3.66 3 -4.32 3 -5 3 C-5 2.34 -5 1.68 -5 1 C-7.31 1 -9.62 1 -12 1 C-12 0.67 -12 0.34 -12 0 C-3.42857143 -1.28571429 -3.42857143 -1.28571429 0 0 Z " fill="#F8CAC8" transform="translate(780,708)"/>
<path d="M0 0 C2.95183101 2.95183101 3.08663988 5.95511947 4 10 C3.01 10.495 3.01 10.495 2 11 C0.80712589 7.12315913 0 4.08378077 0 0 Z " fill="#F7D3D2" transform="translate(591,560)"/>
<path d="M0 0 C-2.26185454 2.26185454 -3.96983561 3.03921617 -7 4 C-7.99 3.67 -8.98 3.34 -10 3 C-6.68152292 -0.06320961 -4.44849969 -0.3033068 0 0 Z " fill="#BE282C" transform="translate(938,468)"/>
<path d="M0 0 C1.485 0.99 1.485 0.99 3 2 C3 2.99 3 3.98 3 5 C2.34 5 1.68 5 1 5 C1 5.66 1 6.32 1 7 C0.34 7 -0.32 7 -1 7 C-0.67 4.69 -0.34 2.38 0 0 Z " fill="#C20607" transform="translate(764,393)"/>
<path d="M0 0 C0.91058531 3.07322544 1.08886184 5.80097361 1 9 C0.01 9.33 -0.98 9.66 -2 10 C-1.125 2.25 -1.125 2.25 0 0 Z " fill="#F8BFC0" transform="translate(642,374)"/>
<path d="M0 0 C0.99 0.495 0.99 0.495 2 1 C2 1.66 2 2.32 2 3 C2.99 3.33 3.98 3.66 5 4 C5.33 4.99 5.66 5.98 6 7 C4.35 7 2.7 7 1 7 C0.67 4.69 0.34 2.38 0 0 Z " fill="#F9D7D2" transform="translate(331,373)"/>
<path d="M0 0 C0.33 0 0.66 0 1 0 C1 2.64 1 5.28 1 8 C0.34 8 -0.32 8 -1 8 C-1.33 8.66 -1.66 9.32 -2 10 C-1.125 2.25 -1.125 2.25 0 0 Z " fill="#B81D1E" transform="translate(770,366)"/>
<path d="M0 0 C0.33 0 0.66 0 1 0 C1 2.64 1 5.28 1 8 C0.34 8 -0.32 8 -1 8 C-1.33 8.66 -1.66 9.32 -2 10 C-1.125 2.25 -1.125 2.25 0 0 Z " fill="#C73E3D" transform="translate(772,356)"/>
<path d="M0 0 C1.60080151 4.00200378 0.29279692 7.04556236 -1 11 C-1.33 11 -1.66 11 -2 11 C-2.05399736 9.54207116 -2.09279177 8.08357288 -2.125 6.625 C-2.15980469 5.40683594 -2.15980469 5.40683594 -2.1953125 4.1640625 C-2 2 -2 2 0 0 Z " fill="#B91717" transform="translate(618,261)"/>
<path d="M0 0 C0.33 1.32 0.66 2.64 1 4 C1.66 4 2.32 4 3 4 C2.34 5.65 1.68 7.3 1 9 C0.34 8.67 -0.32 8.34 -1 8 C-0.67 5.36 -0.34 2.72 0 0 Z " fill="#FCE4E3" transform="translate(675,216)"/>
<path d="M0 0 C0.33 0 0.66 0 1 0 C1.1875 3.375 1.1875 3.375 1 7 C0.01 7.66 -0.98 8.32 -2 9 C-1.125 1.125 -1.125 1.125 0 0 Z " fill="#FFE2E0" transform="translate(777,177)"/>
<path d="M0 0 C0.66 0.66 1.32 1.32 2 2 C1.33333333 4 0.66666667 6 0 8 C-3 3.25 -3 3.25 -3 1 C-2.01 0.67 -1.02 0.34 0 0 Z " fill="#C21A1C" transform="translate(633,632)"/>
<path d="M0 0 C1.98 0 3.96 0 6 0 C6 0.66 6 1.32 6 2 C5.34 2 4.68 2 4 2 C3.67 2.99 3.34 3.98 3 5 C1.5 3.625 1.5 3.625 0 2 C0 1.34 0 0.68 0 0 Z " fill="#C10D0F" transform="translate(609,596)"/>
<path d="M0 0 C1.9375 0.5625 1.9375 0.5625 4 2 C4.75 5.625 4.75 5.625 5 9 C1.7457985 6.16569547 0.4793247 4.31392226 0 0 Z " fill="#D0484B" transform="translate(573,521)"/>
<path d="M0 0 C2.79872437 2.52788007 4.45773019 4.20411134 5 8 C3.68 7.67 2.36 7.34 1 7 C0.67 4.69 0.34 2.38 0 0 Z " fill="#F4BCB9" transform="translate(561,500)"/>
<path d="M0 0 C3.465 1.98 3.465 1.98 7 4 C5.02 4.99 5.02 4.99 3 6 C2.67 5.01 2.34 4.02 2 3 C1.01 2.67 0.02 2.34 -1 2 C-0.67 1.34 -0.34 0.68 0 0 Z " fill="#FCE2DC" transform="translate(409,498)"/>
<path d="M0 0 C1.65 0 3.3 0 5 0 C5.33 1.98 5.66 3.96 6 6 C3.97945196 4.35830472 1.97956942 2.69088222 0 1 C0 0.67 0 0.34 0 0 Z " fill="#C53638" transform="translate(540,473)"/>
</svg>
